# MagicaVoxel @ Ephtracy

# group
o 

# material
mtllib Chicken.mtl
usemtl palette

# normals
vn -1 0 0
vn 1 0 0
vn 0 0 1
vn 0 0 -1
vn 0 -1 0
vn 0 1 0

# texcoords
vt 0.970703 0.5
vt 0.974609 0.5
vt 0.978516 0.5
vt 0.982422 0.5

# verts
v 0 2.4 -0.2
v 0 2.4 -0.6
v 0 2.9 -0.2
v 0 2.9 -0.6
v 0.1 2.4 -0.1
v 0.1 2.4 -0.2
v 0.1 2.4 -0.6
v 0.1 2.4 -0.7
v 0.1 2.9 -0.1
v 0.1 2.9 -0.2
v 0.1 2.9 -0.6
v 0.1 2.9 -0.7
v 0.3 2.5 0
v 0.3 2.5 -0.1
v 0.3 2.5 -0.7
v 0.3 2.5 -0.8
v 0.3 2.8 0
v 0.3 2.8 -0.1
v 0.3 2.8 -0.7
v 0.3 2.8 -0.8
v 0.4 2.9 -0.1
v 0.4 2.9 -0.7
v 0.4 3.7 -0.1
v 0.4 3.7 -0.7
v 0.5 2 0
v 0.5 2 -0.3
v 0.5 2 -0.5
v 0.5 2 -0.8
v 0.5 2.1 0
v 0.5 2.1 -0.3
v 0.5 2.1 -0.5
v 0.5 2.1 -0.8
v 0.6 2.1 -0.1
v 0.6 2.1 -0.2
v 0.6 2.1 -0.6
v 0.6 2.1 -0.7
v 0.6 2.4 -0.1
v 0.6 2.4 -0.2
v 0.6 2.4 -0.6
v 0.6 2.4 -0.7
v 0.6 3.7 -0.3
v 0.6 3.7 -0.5
v 0.6 3.9 -0.3
v 0.6 3.9 -0.5
v 1 2.5 -0.1
v 1 2.5 -0.2
v 1 2.5 -0.6
v 1 2.5 -0.7
v 1 2.8 -0.1
v 1 2.8 -0.2
v 1 2.8 -0.6
v 1 2.8 -0.7
v 1.1 2.5 -0.2
v 1.1 2.5 -0.6
v 1.1 3.6 -0.2
v 1.1 3.6 -0.6
v 0.1 2.5 -0.2
v 0.1 2.5 -0.6
v 0.1 2.8 -0.2
v 0.1 2.8 -0.6
v 0.3 2.5 -0.1
v 0.3 2.5 -0.2
v 0.3 2.5 -0.6
v 0.3 2.5 -0.7
v 0.3 2.8 -0.1
v 0.3 2.8 -0.2
v 0.3 2.8 -0.6
v 0.3 2.8 -0.7
v 0.5 2.8 -0.2
v 0.5 2.8 -0.6
v 0.5 3.6 -0.2
v 0.5 3.6 -0.6
v 0.7 2.1 -0.1
v 0.7 2.1 -0.2
v 0.7 2.1 -0.6
v 0.7 2.1 -0.7
v 0.7 2.4 -0.1
v 0.7 2.4 -0.2
v 0.7 2.4 -0.6
v 0.7 2.4 -0.7
v 0.8 2 -0.1
v 0.8 2 -0.2
v 0.8 2 -0.6
v 0.8 2 -0.7
v 0.8 2.1 -0.1
v 0.8 2.1 -0.2
v 0.8 2.1 -0.6
v 0.8 2.1 -0.7
v 1 2 0
v 1 2 -0.1
v 1 2 -0.2
v 1 2 -0.3
v 1 2 -0.5
v 1 2 -0.6
v 1 2 -0.7
v 1 2 -0.8
v 1 2.1 0
v 1 2.1 -0.1
v 1 2.1 -0.2
v 1 2.1 -0.3
v 1 2.1 -0.5
v 1 2.1 -0.6
v 1 2.1 -0.7
v 1 2.1 -0.8
v 1 2.5 0
v 1 2.5 -0.1
v 1 2.5 -0.7
v 1 2.5 -0.8
v 1 2.8 0
v 1 2.8 -0.1
v 1 2.8 -0.7
v 1 2.8 -0.8
v 1 3.7 -0.3
v 1 3.7 -0.5
v 1 3.9 -0.3
v 1 3.9 -0.5
v 1.2 2.4 -0.1
v 1.2 2.4 -0.7
v 1.2 3.1 -0.3
v 1.2 3.1 -0.5
v 1.2 3.3 -0.3
v 1.2 3.3 -0.5
v 1.2 3.5 -0.3
v 1.2 3.5 -0.5
v 1.2 3.7 -0.1
v 1.2 3.7 -0.7
v 1.4 3.1 -0.3
v 1.4 3.1 -0.5
v 1.4 3.3 -0.3
v 1.4 3.3 -0.5
v 1.5 3.3 -0.3
v 1.5 3.3 -0.5
v 1.5 3.5 -0.3
v 1.5 3.5 -0.5
v 0.3 2.5 0
v 0.3 2.8 0
v 0.5 2 0
v 0.5 2.1 0
v 1 2 0
v 1 2.1 0
v 1 2.5 0
v 1 2.8 0
v 0.1 2.4 -0.1
v 0.1 2.9 -0.1
v 0.3 2.5 -0.1
v 0.3 2.8 -0.1
v 0.4 2.9 -0.1
v 0.4 3.7 -0.1
v 0.6 2.1 -0.1
v 0.6 2.4 -0.1
v 0.7 2.1 -0.1
v 0.7 2.4 -0.1
v 0.9 3.4 -0.1
v 0.9 3.5 -0.1
v 1 2.5 -0.1
v 1 2.8 -0.1
v 1 3.4 -0.1
v 1 3.5 -0.1
v 1.2 2.4 -0.1
v 1.2 3.7 -0.1
v 0 2.4 -0.2
v 0 2.9 -0.2
v 0.1 2.4 -0.2
v 0.1 2.9 -0.2
v 0.8 2 -0.2
v 0.8 2.1 -0.2
v 1 2 -0.2
v 1 2.1 -0.2
v 0.6 3.7 -0.3
v 0.6 3.9 -0.3
v 1 3.7 -0.3
v 1 3.9 -0.3
v 1.2 3.1 -0.3
v 1.2 3.3 -0.3
v 1.2 3.5 -0.3
v 1.4 3.1 -0.3
v 1.4 3.3 -0.3
v 1.5 3.3 -0.3
v 1.5 3.5 -0.3
v 0.5 2 -0.5
v 0.5 2.1 -0.5
v 1 2 -0.5
v 1 2.1 -0.5
v 0.1 2.5 -0.6
v 0.1 2.8 -0.6
v 0.3 2.5 -0.6
v 0.3 2.8 -0.6
v 0.5 2.8 -0.6
v 0.5 3.6 -0.6
v 0.6 2.1 -0.6
v 0.6 2.4 -0.6
v 0.7 2.1 -0.6
v 0.7 2.4 -0.6
v 0.9 3.4 -0.6
v 0.9 3.5 -0.6
v 1 2.5 -0.6
v 1 2.8 -0.6
v 1 3.4 -0.6
v 1 3.5 -0.6
v 1.1 2.5 -0.6
v 1.1 3.6 -0.6
v 0.3 2.5 -0.7
v 0.3 2.8 -0.7
v 0.8 2 -0.7
v 0.8 2.1 -0.7
v 1 2 -0.7
v 1 2.1 -0.7
v 1 2.5 -0.7
v 1 2.8 -0.7
v 0.3 2.5 -0.1
v 0.3 2.8 -0.1
v 0.8 2 -0.1
v 0.8 2.1 -0.1
v 1 2 -0.1
v 1 2.1 -0.1
v 1 2.5 -0.1
v 1 2.8 -0.1
v 0.1 2.5 -0.2
v 0.1 2.8 -0.2
v 0.3 2.5 -0.2
v 0.3 2.8 -0.2
v 0.5 2.8 -0.2
v 0.5 3.6 -0.2
v 0.6 2.1 -0.2
v 0.6 2.4 -0.2
v 0.7 2.1 -0.2
v 0.7 2.4 -0.2
v 0.9 3.4 -0.2
v 0.9 3.5 -0.2
v 1 2.5 -0.2
v 1 2.8 -0.2
v 1 3.4 -0.2
v 1 3.5 -0.2
v 1.1 2.5 -0.2
v 1.1 3.6 -0.2
v 0.5 2 -0.3
v 0.5 2.1 -0.3
v 1 2 -0.3
v 1 2.1 -0.3
v 0.6 3.7 -0.5
v 0.6 3.9 -0.5
v 1 3.7 -0.5
v 1 3.9 -0.5
v 1.2 3.1 -0.5
v 1.2 3.3 -0.5
v 1.2 3.5 -0.5
v 1.4 3.1 -0.5
v 1.4 3.3 -0.5
v 1.5 3.3 -0.5
v 1.5 3.5 -0.5
v 0 2.4 -0.6
v 0 2.9 -0.6
v 0.1 2.4 -0.6
v 0.1 2.9 -0.6
v 0.8 2 -0.6
v 0.8 2.1 -0.6
v 1 2 -0.6
v 1 2.1 -0.6
v 0.1 2.4 -0.7
v 0.1 2.9 -0.7
v 0.3 2.5 -0.7
v 0.3 2.8 -0.7
v 0.4 2.9 -0.7
v 0.4 3.7 -0.7
v 0.6 2.1 -0.7
v 0.6 2.4 -0.7
v 0.7 2.1 -0.7
v 0.7 2.4 -0.7
v 0.9 3.4 -0.7
v 0.9 3.5 -0.7
v 1 2.5 -0.7
v 1 2.8 -0.7
v 1 3.4 -0.7
v 1 3.5 -0.7
v 1.2 2.4 -0.7
v 1.2 3.7 -0.7
v 0.3 2.5 -0.8
v 0.3 2.8 -0.8
v 0.5 2 -0.8
v 0.5 2.1 -0.8
v 1 2 -0.8
v 1 2.1 -0.8
v 1 2.5 -0.8
v 1 2.8 -0.8
v 0.5 2 0
v 1 2 0
v 0.8 2 -0.1
v 1 2 -0.1
v 0.8 2 -0.2
v 1 2 -0.2
v 0.5 2 -0.3
v 1 2 -0.3
v 0.5 2 -0.5
v 1 2 -0.5
v 0.8 2 -0.6
v 1 2 -0.6
v 0.8 2 -0.7
v 1 2 -0.7
v 0.5 2 -0.8
v 1 2 -0.8
v 0.1 2.4 -0.1
v 0.6 2.4 -0.1
v 0.7 2.4 -0.1
v 1.2 2.4 -0.1
v 0 2.4 -0.2
v 0.1 2.4 -0.2
v 0.6 2.4 -0.2
v 0.7 2.4 -0.2
v 0 2.4 -0.6
v 0.1 2.4 -0.6
v 0.6 2.4 -0.6
v 0.7 2.4 -0.6
v 0.1 2.4 -0.7
v 0.6 2.4 -0.7
v 0.7 2.4 -0.7
v 1.2 2.4 -0.7
v 0.3 2.5 0
v 1 2.5 0
v 0.3 2.5 -0.1
v 1 2.5 -0.1
v 0.3 2.5 -0.7
v 1 2.5 -0.7
v 0.3 2.5 -0.8
v 1 2.5 -0.8
v 0.3 2.8 -0.1
v 1 2.8 -0.1
v 0.1 2.8 -0.2
v 0.3 2.8 -0.2
v 0.5 2.8 -0.2
v 1 2.8 -0.2
v 0.1 2.8 -0.6
v 0.3 2.8 -0.6
v 0.5 2.8 -0.6
v 1 2.8 -0.6
v 0.3 2.8 -0.7
v 1 2.8 -0.7
v 1.2 3.1 -0.3
v 1.4 3.1 -0.3
v 1.2 3.1 -0.5
v 1.4 3.1 -0.5
v 1.4 3.3 -0.3
v 1.5 3.3 -0.3
v 1.4 3.3 -0.5
v 1.5 3.3 -0.5
v 0.5 3.6 -0.2
v 1.1 3.6 -0.2
v 0.5 3.6 -0.6
v 1.1 3.6 -0.6
v 0.5 2.1 0
v 1 2.1 0
v 0.6 2.1 -0.1
v 0.7 2.1 -0.1
v 0.8 2.1 -0.1
v 1 2.1 -0.1
v 0.6 2.1 -0.2
v 0.7 2.1 -0.2
v 0.8 2.1 -0.2
v 1 2.1 -0.2
v 0.5 2.1 -0.3
v 1 2.1 -0.3
v 0.5 2.1 -0.5
v 1 2.1 -0.5
v 0.6 2.1 -0.6
v 0.7 2.1 -0.6
v 0.8 2.1 -0.6
v 1 2.1 -0.6
v 0.6 2.1 -0.7
v 0.7 2.1 -0.7
v 0.8 2.1 -0.7
v 1 2.1 -0.7
v 0.5 2.1 -0.8
v 1 2.1 -0.8
v 0.3 2.5 -0.1
v 1 2.5 -0.1
v 0.1 2.5 -0.2
v 0.3 2.5 -0.2
v 1 2.5 -0.2
v 1.1 2.5 -0.2
v 0.1 2.5 -0.6
v 0.3 2.5 -0.6
v 1 2.5 -0.6
v 1.1 2.5 -0.6
v 0.3 2.5 -0.7
v 1 2.5 -0.7
v 0.3 2.8 0
v 1 2.8 0
v 0.3 2.8 -0.1
v 1 2.8 -0.1
v 0.3 2.8 -0.7
v 1 2.8 -0.7
v 0.3 2.8 -0.8
v 1 2.8 -0.8
v 0.1 2.9 -0.1
v 0.4 2.9 -0.1
v 0 2.9 -0.2
v 0.1 2.9 -0.2
v 0 2.9 -0.6
v 0.1 2.9 -0.6
v 0.1 2.9 -0.7
v 0.4 2.9 -0.7
v 1.2 3.5 -0.3
v 1.5 3.5 -0.3
v 1.2 3.5 -0.5
v 1.5 3.5 -0.5
v 0.4 3.7 -0.1
v 1.2 3.7 -0.1
v 0.6 3.7 -0.3
v 1 3.7 -0.3
v 0.6 3.7 -0.5
v 1 3.7 -0.5
v 0.4 3.7 -0.7
v 1.2 3.7 -0.7
v 0.6 3.9 -0.3
v 1 3.9 -0.3
v 0.6 3.9 -0.5
v 1 3.9 -0.5

# faces
f 3/2/1 2/2/1 1/2/1
f 4/2/1 2/2/1 3/2/1
f 9/2/1 6/2/1 5/2/1
f 10/2/1 6/2/1 9/2/1
f 11/2/1 8/2/1 7/2/1
f 12/2/1 8/2/1 11/2/1
f 17/2/1 14/2/1 13/2/1
f 18/2/1 14/2/1 17/2/1
f 19/2/1 16/2/1 15/2/1
f 20/2/1 16/2/1 19/2/1
f 23/2/1 22/2/1 21/2/1
f 24/2/1 22/2/1 23/2/1
f 29/1/1 26/1/1 25/1/1
f 30/1/1 26/1/1 29/1/1
f 31/1/1 28/1/1 27/1/1
f 32/1/1 28/1/1 31/1/1
f 37/1/1 34/1/1 33/1/1
f 38/1/1 34/1/1 37/1/1
f 39/1/1 36/1/1 35/1/1
f 40/1/1 36/1/1 39/1/1
f 43/3/1 42/3/1 41/3/1
f 44/3/1 42/3/1 43/3/1
f 49/2/1 46/2/1 45/2/1
f 50/2/1 46/2/1 49/2/1
f 51/2/1 48/2/1 47/2/1
f 52/2/1 48/2/1 51/2/1
f 55/2/1 54/2/1 53/2/1
f 56/2/1 54/2/1 55/2/1
f 57/2/2 58/2/2 59/2/2
f 59/2/2 58/2/2 60/2/2
f 61/2/2 62/2/2 65/2/2
f 65/2/2 62/2/2 66/2/2
f 63/2/2 64/2/2 67/2/2
f 67/2/2 64/2/2 68/2/2
f 69/2/2 70/2/2 71/2/2
f 71/2/2 70/2/2 72/2/2
f 73/1/2 74/1/2 77/1/2
f 77/1/2 74/1/2 78/1/2
f 75/1/2 76/1/2 79/1/2
f 79/1/2 76/1/2 80/1/2
f 81/1/2 82/1/2 85/1/2
f 85/1/2 82/1/2 86/1/2
f 83/1/2 84/1/2 87/1/2
f 87/1/2 84/1/2 88/1/2
f 89/1/2 90/1/2 97/1/2
f 97/1/2 90/1/2 98/1/2
f 91/1/2 92/1/2 99/1/2
f 99/1/2 92/1/2 100/1/2
f 93/1/2 94/1/2 101/1/2
f 101/1/2 94/1/2 102/1/2
f 95/1/2 96/1/2 103/1/2
f 103/1/2 96/1/2 104/1/2
f 105/2/2 106/2/2 109/2/2
f 109/2/2 106/2/2 110/2/2
f 107/2/2 108/2/2 111/2/2
f 111/2/2 108/2/2 112/2/2
f 113/3/2 114/3/2 115/3/2
f 115/3/2 114/3/2 116/3/2
f 117/2/2 118/2/2 119/2/2
f 119/2/2 118/2/2 120/2/2
f 117/2/2 119/2/2 121/2/2
f 120/2/2 118/2/2 122/2/2
f 117/2/2 121/2/2 123/2/2
f 122/2/2 118/2/2 124/2/2
f 117/2/2 123/2/2 125/2/2
f 123/2/2 124/2/2 125/2/2
f 124/2/2 118/2/2 126/2/2
f 125/2/2 124/2/2 126/2/2
f 127/3/2 128/3/2 129/3/2
f 129/3/2 128/3/2 130/3/2
f 131/1/2 132/1/2 133/1/2
f 133/1/2 132/1/2 134/1/2
f 139/1/3 138/1/3 137/1/3
f 140/1/3 138/1/3 139/1/3
f 141/2/3 136/2/3 135/2/3
f 142/2/3 136/2/3 141/2/3
f 145/2/3 144/2/3 143/2/3
f 146/2/3 144/2/3 145/2/3
f 147/2/3 144/2/3 146/2/3
f 150/2/3 145/2/3 143/2/3
f 151/1/3 150/1/3 149/1/3
f 152/2/3 145/2/3 150/2/3
f 152/1/3 150/1/3 151/1/3
f 153/2/3 148/2/3 147/2/3
f 154/2/3 148/2/3 153/2/3
f 155/2/3 145/2/3 152/2/3
f 156/2/3 147/2/3 146/2/3
f 156/2/3 153/2/3 147/2/3
f 157/4/3 154/4/3 153/4/3
f 157/2/3 153/2/3 156/2/3
f 158/2/3 148/2/3 154/2/3
f 158/4/3 154/4/3 157/4/3
f 159/2/3 157/2/3 156/2/3
f 159/2/3 155/2/3 152/2/3
f 159/2/3 158/2/3 157/2/3
f 159/2/3 156/2/3 155/2/3
f 160/2/3 148/2/3 158/2/3
f 160/2/3 158/2/3 159/2/3
f 163/2/3 162/2/3 161/2/3
f 164/2/3 162/2/3 163/2/3
f 167/1/3 166/1/3 165/1/3
f 168/1/3 166/1/3 167/1/3
f 171/3/3 170/3/3 169/3/3
f 172/3/3 170/3/3 171/3/3
f 176/3/3 174/3/3 173/3/3
f 177/1/3 175/1/3 174/1/3
f 177/3/3 174/3/3 176/3/3
f 178/1/3 175/1/3 177/1/3
f 179/1/3 175/1/3 178/1/3
f 182/1/3 181/1/3 180/1/3
f 183/1/3 181/1/3 182/1/3
f 186/2/3 185/2/3 184/2/3
f 187/2/3 185/2/3 186/2/3
f 192/1/3 191/1/3 190/1/3
f 193/1/3 191/1/3 192/1/3
f 194/2/3 189/2/3 188/2/3
f 195/2/3 189/2/3 194/2/3
f 197/2/3 194/2/3 188/2/3
f 198/4/3 195/4/3 194/4/3
f 198/2/3 194/2/3 197/2/3
f 199/2/3 189/2/3 195/2/3
f 199/4/3 195/4/3 198/4/3
f 200/2/3 198/2/3 197/2/3
f 200/2/3 197/2/3 196/2/3
f 200/2/3 199/2/3 198/2/3
f 201/2/3 189/2/3 199/2/3
f 201/2/3 199/2/3 200/2/3
f 206/1/3 205/1/3 204/1/3
f 207/1/3 205/1/3 206/1/3
f 208/2/3 203/2/3 202/2/3
f 209/2/3 203/2/3 208/2/3
f 212/1/4 213/1/4 214/1/4
f 214/1/4 213/1/4 215/1/4
f 210/2/4 211/2/4 216/2/4
f 216/2/4 211/2/4 217/2/4
f 218/2/4 219/2/4 220/2/4
f 220/2/4 219/2/4 221/2/4
f 224/1/4 225/1/4 226/1/4
f 226/1/4 225/1/4 227/1/4
f 222/2/4 223/2/4 228/2/4
f 228/2/4 223/2/4 229/2/4
f 222/2/4 228/2/4 231/2/4
f 228/4/4 229/4/4 232/4/4
f 231/2/4 228/2/4 232/2/4
f 229/2/4 223/2/4 233/2/4
f 232/4/4 229/4/4 233/4/4
f 231/2/4 232/2/4 234/2/4
f 230/2/4 231/2/4 234/2/4
f 232/2/4 233/2/4 234/2/4
f 233/2/4 223/2/4 235/2/4
f 234/2/4 233/2/4 235/2/4
f 236/1/4 237/1/4 238/1/4
f 238/1/4 237/1/4 239/1/4
f 240/3/4 241/3/4 242/3/4
f 242/3/4 241/3/4 243/3/4
f 244/3/4 245/3/4 247/3/4
f 245/1/4 246/1/4 248/1/4
f 247/3/4 245/3/4 248/3/4
f 248/1/4 246/1/4 249/1/4
f 249/1/4 246/1/4 250/1/4
f 251/2/4 252/2/4 253/2/4
f 253/2/4 252/2/4 254/2/4
f 255/1/4 256/1/4 257/1/4
f 257/1/4 256/1/4 258/1/4
f 259/2/4 260/2/4 261/2/4
f 261/2/4 260/2/4 262/2/4
f 262/2/4 260/2/4 263/2/4
f 259/2/4 261/2/4 266/2/4
f 265/1/4 266/1/4 267/1/4
f 266/2/4 261/2/4 268/2/4
f 267/1/4 266/1/4 268/1/4
f 263/2/4 264/2/4 269/2/4
f 269/2/4 264/2/4 270/2/4
f 268/2/4 261/2/4 271/2/4
f 262/2/4 263/2/4 272/2/4
f 263/2/4 269/2/4 272/2/4
f 269/4/4 270/4/4 273/4/4
f 272/2/4 269/2/4 273/2/4
f 270/2/4 264/2/4 274/2/4
f 273/4/4 270/4/4 274/4/4
f 272/2/4 273/2/4 275/2/4
f 268/2/4 271/2/4 275/2/4
f 273/2/4 274/2/4 275/2/4
f 271/2/4 272/2/4 275/2/4
f 274/2/4 264/2/4 276/2/4
f 275/2/4 274/2/4 276/2/4
f 279/1/4 280/1/4 281/1/4
f 281/1/4 280/1/4 282/1/4
f 277/2/4 278/2/4 283/2/4
f 283/2/4 278/2/4 284/2/4
f 287/1/5 286/1/5 285/1/5
f 288/1/5 286/1/5 287/1/5
f 289/1/5 287/1/5 285/1/5
f 291/1/5 289/1/5 285/1/5
f 291/1/5 290/1/5 289/1/5
f 292/1/5 290/1/5 291/1/5
f 295/1/5 294/1/5 293/1/5
f 296/1/5 294/1/5 295/1/5
f 297/1/5 295/1/5 293/1/5
f 299/1/5 297/1/5 293/1/5
f 299/1/5 298/1/5 297/1/5
f 300/1/5 298/1/5 299/1/5
f 306/2/5 302/2/5 301/2/5
f 307/2/5 302/2/5 306/2/5
f 308/2/5 304/2/5 303/2/5
f 309/2/5 307/2/5 306/2/5
f 309/2/5 308/2/5 307/2/5
f 309/2/5 306/2/5 305/2/5
f 310/2/5 308/2/5 309/2/5
f 311/2/5 308/2/5 310/2/5
f 312/2/5 304/2/5 308/2/5
f 312/2/5 308/2/5 311/2/5
f 313/2/5 311/2/5 310/2/5
f 314/2/5 311/2/5 313/2/5
f 315/2/5 304/2/5 312/2/5
f 316/2/5 304/2/5 315/2/5
f 319/2/5 318/2/5 317/2/5
f 320/2/5 318/2/5 319/2/5
f 323/2/5 322/2/5 321/2/5
f 324/2/5 322/2/5 323/2/5
f 328/2/5 326/2/5 325/2/5
f 329/2/5 326/2/5 328/2/5
f 330/2/5 326/2/5 329/2/5
f 331/2/5 328/2/5 327/2/5
f 331/2/5 329/2/5 328/2/5
f 332/2/5 329/2/5 331/2/5
f 333/2/5 329/2/5 332/2/5
f 335/2/5 334/2/5 333/2/5
f 335/2/5 333/2/5 332/2/5
f 336/2/5 334/2/5 335/2/5
f 339/3/5 338/3/5 337/3/5
f 340/3/5 338/3/5 339/3/5
f 343/1/5 342/1/5 341/1/5
f 344/1/5 342/1/5 343/1/5
f 347/2/5 346/2/5 345/2/5
f 348/2/5 346/2/5 347/2/5
f 349/1/6 350/1/6 351/1/6
f 351/1/6 350/1/6 352/1/6
f 352/1/6 350/1/6 353/1/6
f 353/1/6 350/1/6 354/1/6
f 349/1/6 351/1/6 355/1/6
f 352/1/6 353/1/6 356/1/6
f 356/1/6 353/1/6 357/1/6
f 349/1/6 355/1/6 359/1/6
f 357/1/6 358/1/6 359/1/6
f 356/1/6 357/1/6 359/1/6
f 355/1/6 356/1/6 359/1/6
f 359/1/6 358/1/6 360/1/6
f 361/1/6 362/1/6 363/1/6
f 363/1/6 362/1/6 364/1/6
f 364/1/6 362/1/6 365/1/6
f 365/1/6 362/1/6 366/1/6
f 361/1/6 363/1/6 367/1/6
f 364/1/6 365/1/6 368/1/6
f 368/1/6 365/1/6 369/1/6
f 361/1/6 367/1/6 371/1/6
f 369/1/6 370/1/6 371/1/6
f 368/1/6 369/1/6 371/1/6
f 367/1/6 368/1/6 371/1/6
f 371/1/6 370/1/6 372/1/6
f 373/2/6 374/2/6 376/2/6
f 376/2/6 374/2/6 377/2/6
f 375/2/6 376/2/6 379/2/6
f 377/2/6 378/2/6 379/2/6
f 376/2/6 377/2/6 379/2/6
f 379/2/6 378/2/6 380/2/6
f 380/2/6 378/2/6 381/2/6
f 381/2/6 378/2/6 382/2/6
f 380/2/6 381/2/6 383/2/6
f 383/2/6 381/2/6 384/2/6
f 385/2/6 386/2/6 387/2/6
f 387/2/6 386/2/6 388/2/6
f 389/2/6 390/2/6 391/2/6
f 391/2/6 390/2/6 392/2/6
f 393/2/6 394/2/6 396/2/6
f 395/2/6 396/2/6 397/2/6
f 396/2/6 394/2/6 398/2/6
f 397/2/6 396/2/6 398/2/6
f 398/2/6 394/2/6 399/2/6
f 399/2/6 394/2/6 400/2/6
f 401/1/6 402/1/6 403/1/6
f 403/1/6 402/1/6 404/1/6
f 405/2/6 406/2/6 407/2/6
f 407/2/6 406/2/6 408/2/6
f 405/2/6 407/2/6 409/2/6
f 408/2/6 406/2/6 410/2/6
f 405/2/6 409/2/6 411/2/6
f 409/2/6 410/2/6 411/2/6
f 410/2/6 406/2/6 412/2/6
f 411/2/6 410/2/6 412/2/6
f 413/3/6 414/3/6 415/3/6
f 415/3/6 414/3/6 416/3/6
