# MagicaVoxel @ Ephtracy

# group
o 

# material
mtllib Tree4.mtl
usemtl palette

# normals
vn -1 0 0
vn 1 0 0
vn 0 0 1
vn 0 0 -1
vn 0 -1 0
vn 0 1 0

# texcoords
vt 0.814453 0.5
vt 0.818359 0.5
vt 0.822266 0.5
vt 0.826172 0.5

# verts
v 0 2.3 0
v 0 2.3 -0.5
v 0 2.4 0
v 0 2.4 -0.5
v 0 2.6 0
v 0 2.6 -0.5
v 0 2.7 0
v 0 2.7 -0.5
v 0 2.9 0
v 0 2.9 -0.5
v 0 3 0
v 0 3 -0.5
v 0 3.2 0
v 0 3.2 -0.5
v 0 3.3 0
v 0 3.3 -0.5
v 0 3.5 0
v 0 3.5 -0.5
v 0 3.6 0
v 0 3.6 -0.5
v 0.1 2 -0.1
v 0.1 2 -0.2
v 0.1 2 -0.4
v 0.1 2.3 -0.1
v 0.1 2.3 -0.2
v 0.1 2.3 -0.4
v 0.4 2 -0.1
v 0.4 2 -0.3
v 0.4 2 -0.4
v 0.4 2.3 -0.1
v 0.4 2.3 -0.3
v 0.4 2.3 -0.4
v 0.5 2.3 0
v 0.5 2.3 -0.5
v 0.5 2.4 0
v 0.5 2.4 -0.5
v 0.5 2.6 0
v 0.5 2.6 -0.5
v 0.5 2.7 0
v 0.5 2.7 -0.5
v 0.5 2.9 0
v 0.5 2.9 -0.5
v 0.5 3 0
v 0.5 3 -0.5
v 0.5 3.2 0
v 0.5 3.2 -0.5
v 0.5 3.3 0
v 0.5 3.3 -0.5
v 0.5 3.5 0
v 0.5 3.5 -0.5
v 0.5 3.6 0
v 0.5 3.6 -0.5
v 0 2.3 0
v 0 2.4 0
v 0 2.6 0
v 0 2.7 0
v 0 2.9 0
v 0 3 0
v 0 3.2 0
v 0 3.3 0
v 0 3.5 0
v 0 3.6 0
v 0.5 2.3 0
v 0.5 2.4 0
v 0.5 2.6 0
v 0.5 2.7 0
v 0.5 2.9 0
v 0.5 3 0
v 0.5 3.2 0
v 0.5 3.3 0
v 0.5 3.5 0
v 0.5 3.6 0
v 0.1 2 -0.1
v 0.1 2.3 -0.1
v 0.2 2 -0.1
v 0.2 2.3 -0.1
v 0.4 2 -0.1
v 0.4 2.3 -0.1
v 0.1 2 -0.4
v 0.1 2.3 -0.4
v 0.3 2 -0.4
v 0.3 2.3 -0.4
v 0.4 2 -0.4
v 0.4 2.3 -0.4
v 0 2.3 -0.5
v 0 2.4 -0.5
v 0 2.6 -0.5
v 0 2.7 -0.5
v 0 2.9 -0.5
v 0 3 -0.5
v 0 3.2 -0.5
v 0 3.3 -0.5
v 0 3.5 -0.5
v 0 3.6 -0.5
v 0.5 2.3 -0.5
v 0.5 2.4 -0.5
v 0.5 2.6 -0.5
v 0.5 2.7 -0.5
v 0.5 2.9 -0.5
v 0.5 3 -0.5
v 0.5 3.2 -0.5
v 0.5 3.3 -0.5
v 0.5 3.5 -0.5
v 0.5 3.6 -0.5
v 0.1 2 -0.1
v 0.2 2 -0.1
v 0.4 2 -0.1
v 0.1 2 -0.2
v 0.2 2 -0.2
v 0.3 2 -0.3
v 0.4 2 -0.3
v 0.1 2 -0.4
v 0.3 2 -0.4
v 0.4 2 -0.4
v 0 2.3 0
v 0.5 2.3 0
v 0.1 2.3 -0.1
v 0.2 2.3 -0.1
v 0.4 2.3 -0.1
v 0.1 2.3 -0.2
v 0.4 2.3 -0.3
v 0.1 2.3 -0.4
v 0.3 2.3 -0.4
v 0.4 2.3 -0.4
v 0 2.3 -0.5
v 0.5 2.3 -0.5
v 0 3.6 0
v 0.5 3.6 0
v 0 3.6 -0.5
v 0.5 3.6 -0.5

# faces
f 3/2/1 2/2/1 1/2/1
f 4/2/1 2/2/1 3/2/1
f 5/1/1 4/1/1 3/1/1
f 6/1/1 4/1/1 5/1/1
f 7/2/1 6/2/1 5/2/1
f 8/2/1 6/2/1 7/2/1
f 9/1/1 8/1/1 7/1/1
f 10/1/1 8/1/1 9/1/1
f 11/2/1 10/2/1 9/2/1
f 12/2/1 10/2/1 11/2/1
f 13/1/1 12/1/1 11/1/1
f 14/1/1 12/1/1 13/1/1
f 15/2/1 14/2/1 13/2/1
f 16/2/1 14/2/1 15/2/1
f 17/1/1 16/1/1 15/1/1
f 18/1/1 16/1/1 17/1/1
f 19/2/1 18/2/1 17/2/1
f 20/2/1 18/2/1 19/2/1
f 24/4/1 22/4/1 21/4/1
f 25/3/1 23/3/1 22/3/1
f 25/4/1 22/4/1 24/4/1
f 26/3/1 23/3/1 25/3/1
f 27/3/2 28/3/2 30/3/2
f 28/4/2 29/4/2 31/4/2
f 30/3/2 28/3/2 31/3/2
f 31/4/2 29/4/2 32/4/2
f 33/2/2 34/2/2 35/2/2
f 35/2/2 34/2/2 36/2/2
f 35/1/2 36/1/2 37/1/2
f 37/1/2 36/1/2 38/1/2
f 37/2/2 38/2/2 39/2/2
f 39/2/2 38/2/2 40/2/2
f 39/1/2 40/1/2 41/1/2
f 41/1/2 40/1/2 42/1/2
f 41/2/2 42/2/2 43/2/2
f 43/2/2 42/2/2 44/2/2
f 43/1/2 44/1/2 45/1/2
f 45/1/2 44/1/2 46/1/2
f 45/2/2 46/2/2 47/2/2
f 47/2/2 46/2/2 48/2/2
f 47/1/2 48/1/2 49/1/2
f 49/1/2 48/1/2 50/1/2
f 49/2/2 50/2/2 51/2/2
f 51/2/2 50/2/2 52/2/2
f 63/2/3 54/2/3 53/2/3
f 64/1/3 55/1/3 54/1/3
f 64/2/3 54/2/3 63/2/3
f 65/2/3 56/2/3 55/2/3
f 65/1/3 55/1/3 64/1/3
f 66/1/3 57/1/3 56/1/3
f 66/2/3 56/2/3 65/2/3
f 67/2/3 58/2/3 57/2/3
f 67/1/3 57/1/3 66/1/3
f 68/1/3 59/1/3 58/1/3
f 68/2/3 58/2/3 67/2/3
f 69/2/3 60/2/3 59/2/3
f 69/1/3 59/1/3 68/1/3
f 70/1/3 61/1/3 60/1/3
f 70/2/3 60/2/3 69/2/3
f 71/2/3 62/2/3 61/2/3
f 71/1/3 61/1/3 70/1/3
f 72/2/3 62/2/3 71/2/3
f 75/4/3 74/4/3 73/4/3
f 76/4/3 74/4/3 75/4/3
f 77/3/3 76/3/3 75/3/3
f 78/3/3 76/3/3 77/3/3
f 79/3/4 80/3/4 81/3/4
f 81/3/4 80/3/4 82/3/4
f 81/4/4 82/4/4 83/4/4
f 83/4/4 82/4/4 84/4/4
f 85/2/4 86/2/4 95/2/4
f 86/1/4 87/1/4 96/1/4
f 95/2/4 86/2/4 96/2/4
f 87/2/4 88/2/4 97/2/4
f 96/1/4 87/1/4 97/1/4
f 88/1/4 89/1/4 98/1/4
f 97/2/4 88/2/4 98/2/4
f 89/2/4 90/2/4 99/2/4
f 98/1/4 89/1/4 99/1/4
f 90/1/4 91/1/4 100/1/4
f 99/2/4 90/2/4 100/2/4
f 91/2/4 92/2/4 101/2/4
f 100/1/4 91/1/4 101/1/4
f 92/1/4 93/1/4 102/1/4
f 101/2/4 92/2/4 102/2/4
f 93/2/4 94/2/4 103/2/4
f 102/1/4 93/1/4 103/1/4
f 103/2/4 94/2/4 104/2/4
f 108/4/5 106/4/5 105/4/5
f 109/3/5 107/3/5 106/3/5
f 109/4/5 106/4/5 108/4/5
f 110/3/5 109/3/5 108/3/5
f 110/3/5 107/3/5 109/3/5
f 111/3/5 107/3/5 110/3/5
f 112/3/5 110/3/5 108/3/5
f 113/4/5 111/4/5 110/4/5
f 113/3/5 110/3/5 112/3/5
f 114/4/5 111/4/5 113/4/5
f 117/2/5 116/2/5 115/2/5
f 118/2/5 116/2/5 117/2/5
f 119/2/5 116/2/5 118/2/5
f 120/2/5 117/2/5 115/2/5
f 121/2/5 116/2/5 119/2/5
f 122/2/5 120/2/5 115/2/5
f 124/2/5 116/2/5 121/2/5
f 125/2/5 123/2/5 122/2/5
f 125/2/5 124/2/5 123/2/5
f 125/2/5 122/2/5 115/2/5
f 126/2/5 116/2/5 124/2/5
f 126/2/5 124/2/5 125/2/5
f 127/2/6 128/2/6 129/2/6
f 129/2/6 128/2/6 130/2/6
