# MagicaVoxel @ Ephtracy

# group
o 

# material
mtllib Tree3.mtl
usemtl palette

# normals
vn -1 0 0
vn 1 0 0
vn 0 0 1
vn 0 0 -1
vn 0 -1 0
vn 0 1 0

# texcoords
vt 0.814453 0.5
vt 0.818359 0.5
vt 0.822266 0.5
vt 0.826172 0.5

# verts
v 0 2.3 0
v 0 2.3 -0.5
v 0 2.4 0
v 0 2.4 -0.5
v 0 2.6 0
v 0 2.6 -0.5
v 0 2.7 0
v 0 2.7 -0.5
v 0 2.9 0
v 0 2.9 -0.5
v 0 3 0
v 0 3 -0.5
v 0 3.2 0
v 0 3.2 -0.5
v 0 3.3 0
v 0 3.3 -0.5
v 0.1 2 -0.1
v 0.1 2 -0.2
v 0.1 2 -0.4
v 0.1 2.3 -0.1
v 0.1 2.3 -0.2
v 0.1 2.3 -0.4
v 0.4 2 -0.1
v 0.4 2 -0.3
v 0.4 2 -0.4
v 0.4 2.3 -0.1
v 0.4 2.3 -0.3
v 0.4 2.3 -0.4
v 0.5 2.3 0
v 0.5 2.3 -0.5
v 0.5 2.4 0
v 0.5 2.4 -0.5
v 0.5 2.6 0
v 0.5 2.6 -0.5
v 0.5 2.7 0
v 0.5 2.7 -0.5
v 0.5 2.9 0
v 0.5 2.9 -0.5
v 0.5 3 0
v 0.5 3 -0.5
v 0.5 3.2 0
v 0.5 3.2 -0.5
v 0.5 3.3 0
v 0.5 3.3 -0.5
v 0 2.3 0
v 0 2.4 0
v 0 2.6 0
v 0 2.7 0
v 0 2.9 0
v 0 3 0
v 0 3.2 0
v 0 3.3 0
v 0.5 2.3 0
v 0.5 2.4 0
v 0.5 2.6 0
v 0.5 2.7 0
v 0.5 2.9 0
v 0.5 3 0
v 0.5 3.2 0
v 0.5 3.3 0
v 0.1 2 -0.1
v 0.1 2.3 -0.1
v 0.2 2 -0.1
v 0.2 2.3 -0.1
v 0.4 2 -0.1
v 0.4 2.3 -0.1
v 0.1 2 -0.4
v 0.1 2.3 -0.4
v 0.3 2 -0.4
v 0.3 2.3 -0.4
v 0.4 2 -0.4
v 0.4 2.3 -0.4
v 0 2.3 -0.5
v 0 2.4 -0.5
v 0 2.6 -0.5
v 0 2.7 -0.5
v 0 2.9 -0.5
v 0 3 -0.5
v 0 3.2 -0.5
v 0 3.3 -0.5
v 0.5 2.3 -0.5
v 0.5 2.4 -0.5
v 0.5 2.6 -0.5
v 0.5 2.7 -0.5
v 0.5 2.9 -0.5
v 0.5 3 -0.5
v 0.5 3.2 -0.5
v 0.5 3.3 -0.5
v 0.1 2 -0.1
v 0.2 2 -0.1
v 0.4 2 -0.1
v 0.1 2 -0.2
v 0.2 2 -0.2
v 0.3 2 -0.3
v 0.4 2 -0.3
v 0.1 2 -0.4
v 0.3 2 -0.4
v 0.4 2 -0.4
v 0 2.3 0
v 0.5 2.3 0
v 0.1 2.3 -0.1
v 0.2 2.3 -0.1
v 0.4 2.3 -0.1
v 0.1 2.3 -0.2
v 0.4 2.3 -0.3
v 0.1 2.3 -0.4
v 0.3 2.3 -0.4
v 0.4 2.3 -0.4
v 0 2.3 -0.5
v 0.5 2.3 -0.5
v 0 3.3 0
v 0.5 3.3 0
v 0 3.3 -0.5
v 0.5 3.3 -0.5

# faces
f 3/2/1 2/2/1 1/2/1
f 4/2/1 2/2/1 3/2/1
f 5/1/1 4/1/1 3/1/1
f 6/1/1 4/1/1 5/1/1
f 7/2/1 6/2/1 5/2/1
f 8/2/1 6/2/1 7/2/1
f 9/1/1 8/1/1 7/1/1
f 10/1/1 8/1/1 9/1/1
f 11/2/1 10/2/1 9/2/1
f 12/2/1 10/2/1 11/2/1
f 13/1/1 12/1/1 11/1/1
f 14/1/1 12/1/1 13/1/1
f 15/2/1 14/2/1 13/2/1
f 16/2/1 14/2/1 15/2/1
f 20/4/1 18/4/1 17/4/1
f 21/3/1 19/3/1 18/3/1
f 21/4/1 18/4/1 20/4/1
f 22/3/1 19/3/1 21/3/1
f 23/3/2 24/3/2 26/3/2
f 24/4/2 25/4/2 27/4/2
f 26/3/2 24/3/2 27/3/2
f 27/4/2 25/4/2 28/4/2
f 29/2/2 30/2/2 31/2/2
f 31/2/2 30/2/2 32/2/2
f 31/1/2 32/1/2 33/1/2
f 33/1/2 32/1/2 34/1/2
f 33/2/2 34/2/2 35/2/2
f 35/2/2 34/2/2 36/2/2
f 35/1/2 36/1/2 37/1/2
f 37/1/2 36/1/2 38/1/2
f 37/2/2 38/2/2 39/2/2
f 39/2/2 38/2/2 40/2/2
f 39/1/2 40/1/2 41/1/2
f 41/1/2 40/1/2 42/1/2
f 41/2/2 42/2/2 43/2/2
f 43/2/2 42/2/2 44/2/2
f 53/2/3 46/2/3 45/2/3
f 54/1/3 47/1/3 46/1/3
f 54/2/3 46/2/3 53/2/3
f 55/2/3 48/2/3 47/2/3
f 55/1/3 47/1/3 54/1/3
f 56/1/3 49/1/3 48/1/3
f 56/2/3 48/2/3 55/2/3
f 57/2/3 50/2/3 49/2/3
f 57/1/3 49/1/3 56/1/3
f 58/1/3 51/1/3 50/1/3
f 58/2/3 50/2/3 57/2/3
f 59/2/3 52/2/3 51/2/3
f 59/1/3 51/1/3 58/1/3
f 60/2/3 52/2/3 59/2/3
f 63/4/3 62/4/3 61/4/3
f 64/4/3 62/4/3 63/4/3
f 65/3/3 64/3/3 63/3/3
f 66/3/3 64/3/3 65/3/3
f 67/3/4 68/3/4 69/3/4
f 69/3/4 68/3/4 70/3/4
f 69/4/4 70/4/4 71/4/4
f 71/4/4 70/4/4 72/4/4
f 73/2/4 74/2/4 81/2/4
f 74/1/4 75/1/4 82/1/4
f 81/2/4 74/2/4 82/2/4
f 75/2/4 76/2/4 83/2/4
f 82/1/4 75/1/4 83/1/4
f 76/1/4 77/1/4 84/1/4
f 83/2/4 76/2/4 84/2/4
f 77/2/4 78/2/4 85/2/4
f 84/1/4 77/1/4 85/1/4
f 78/1/4 79/1/4 86/1/4
f 85/2/4 78/2/4 86/2/4
f 79/2/4 80/2/4 87/2/4
f 86/1/4 79/1/4 87/1/4
f 87/2/4 80/2/4 88/2/4
f 92/4/5 90/4/5 89/4/5
f 93/3/5 91/3/5 90/3/5
f 93/4/5 90/4/5 92/4/5
f 94/3/5 93/3/5 92/3/5
f 94/3/5 91/3/5 93/3/5
f 95/3/5 91/3/5 94/3/5
f 96/3/5 94/3/5 92/3/5
f 97/4/5 95/4/5 94/4/5
f 97/3/5 94/3/5 96/3/5
f 98/4/5 95/4/5 97/4/5
f 101/2/5 100/2/5 99/2/5
f 102/2/5 100/2/5 101/2/5
f 103/2/5 100/2/5 102/2/5
f 104/2/5 101/2/5 99/2/5
f 105/2/5 100/2/5 103/2/5
f 106/2/5 104/2/5 99/2/5
f 108/2/5 100/2/5 105/2/5
f 109/2/5 107/2/5 106/2/5
f 109/2/5 108/2/5 107/2/5
f 109/2/5 106/2/5 99/2/5
f 110/2/5 100/2/5 108/2/5
f 110/2/5 108/2/5 109/2/5
f 111/2/6 112/2/6 113/2/6
f 113/2/6 112/2/6 114/2/6
