# MagicaVoxel @ Ephtracy

# group
o 

# material
mtllib Tree1.mtl
usemtl palette

# normals
vn -1 0 0
vn 1 0 0
vn 0 0 1
vn 0 0 -1
vn 0 -1 0
vn 0 1 0

# texcoords
vt 0.814453 0.5
vt 0.818359 0.5
vt 0.822266 0.5
vt 0.826172 0.5

# verts
v 0 2.3 0
v 0 2.3 -0.5
v 0 2.4 0
v 0 2.4 -0.5
v 0 2.6 0
v 0 2.6 -0.5
v 0 2.7 0
v 0 2.7 -0.5
v 0.1 2 -0.1
v 0.1 2 -0.2
v 0.1 2 -0.4
v 0.1 2.3 -0.1
v 0.1 2.3 -0.2
v 0.1 2.3 -0.4
v 0.4 2 -0.1
v 0.4 2 -0.3
v 0.4 2 -0.4
v 0.4 2.3 -0.1
v 0.4 2.3 -0.3
v 0.4 2.3 -0.4
v 0.5 2.3 0
v 0.5 2.3 -0.5
v 0.5 2.4 0
v 0.5 2.4 -0.5
v 0.5 2.6 0
v 0.5 2.6 -0.5
v 0.5 2.7 0
v 0.5 2.7 -0.5
v 0 2.3 0
v 0 2.4 0
v 0 2.6 0
v 0 2.7 0
v 0.5 2.3 0
v 0.5 2.4 0
v 0.5 2.6 0
v 0.5 2.7 0
v 0.1 2 -0.1
v 0.1 2.3 -0.1
v 0.2 2 -0.1
v 0.2 2.3 -0.1
v 0.4 2 -0.1
v 0.4 2.3 -0.1
v 0.1 2 -0.4
v 0.1 2.3 -0.4
v 0.3 2 -0.4
v 0.3 2.3 -0.4
v 0.4 2 -0.4
v 0.4 2.3 -0.4
v 0 2.3 -0.5
v 0 2.4 -0.5
v 0 2.6 -0.5
v 0 2.7 -0.5
v 0.5 2.3 -0.5
v 0.5 2.4 -0.5
v 0.5 2.6 -0.5
v 0.5 2.7 -0.5
v 0.1 2 -0.1
v 0.2 2 -0.1
v 0.4 2 -0.1
v 0.1 2 -0.2
v 0.2 2 -0.2
v 0.3 2 -0.3
v 0.4 2 -0.3
v 0.1 2 -0.4
v 0.3 2 -0.4
v 0.4 2 -0.4
v 0 2.3 0
v 0.5 2.3 0
v 0.1 2.3 -0.1
v 0.2 2.3 -0.1
v 0.4 2.3 -0.1
v 0.1 2.3 -0.2
v 0.4 2.3 -0.3
v 0.1 2.3 -0.4
v 0.3 2.3 -0.4
v 0.4 2.3 -0.4
v 0 2.3 -0.5
v 0.5 2.3 -0.5
v 0 2.7 0
v 0.5 2.7 0
v 0 2.7 -0.5
v 0.5 2.7 -0.5

# faces
f 3/2/1 2/2/1 1/2/1
f 4/2/1 2/2/1 3/2/1
f 5/1/1 4/1/1 3/1/1
f 6/1/1 4/1/1 5/1/1
f 7/2/1 6/2/1 5/2/1
f 8/2/1 6/2/1 7/2/1
f 12/4/1 10/4/1 9/4/1
f 13/3/1 11/3/1 10/3/1
f 13/4/1 10/4/1 12/4/1
f 14/3/1 11/3/1 13/3/1
f 15/3/2 16/3/2 18/3/2
f 16/4/2 17/4/2 19/4/2
f 18/3/2 16/3/2 19/3/2
f 19/4/2 17/4/2 20/4/2
f 21/2/2 22/2/2 23/2/2
f 23/2/2 22/2/2 24/2/2
f 23/1/2 24/1/2 25/1/2
f 25/1/2 24/1/2 26/1/2
f 25/2/2 26/2/2 27/2/2
f 27/2/2 26/2/2 28/2/2
f 33/2/3 30/2/3 29/2/3
f 34/1/3 31/1/3 30/1/3
f 34/2/3 30/2/3 33/2/3
f 35/2/3 32/2/3 31/2/3
f 35/1/3 31/1/3 34/1/3
f 36/2/3 32/2/3 35/2/3
f 39/4/3 38/4/3 37/4/3
f 40/4/3 38/4/3 39/4/3
f 41/3/3 40/3/3 39/3/3
f 42/3/3 40/3/3 41/3/3
f 43/3/4 44/3/4 45/3/4
f 45/3/4 44/3/4 46/3/4
f 45/4/4 46/4/4 47/4/4
f 47/4/4 46/4/4 48/4/4
f 49/2/4 50/2/4 53/2/4
f 50/1/4 51/1/4 54/1/4
f 53/2/4 50/2/4 54/2/4
f 51/2/4 52/2/4 55/2/4
f 54/1/4 51/1/4 55/1/4
f 55/2/4 52/2/4 56/2/4
f 60/4/5 58/4/5 57/4/5
f 61/3/5 59/3/5 58/3/5
f 61/4/5 58/4/5 60/4/5
f 62/3/5 61/3/5 60/3/5
f 62/3/5 59/3/5 61/3/5
f 63/3/5 59/3/5 62/3/5
f 64/3/5 62/3/5 60/3/5
f 65/4/5 63/4/5 62/4/5
f 65/3/5 62/3/5 64/3/5
f 66/4/5 63/4/5 65/4/5
f 69/2/5 68/2/5 67/2/5
f 70/2/5 68/2/5 69/2/5
f 71/2/5 68/2/5 70/2/5
f 72/2/5 69/2/5 67/2/5
f 73/2/5 68/2/5 71/2/5
f 74/2/5 72/2/5 67/2/5
f 76/2/5 68/2/5 73/2/5
f 77/2/5 75/2/5 74/2/5
f 77/2/5 76/2/5 75/2/5
f 77/2/5 74/2/5 67/2/5
f 78/2/5 68/2/5 76/2/5
f 78/2/5 76/2/5 77/2/5
f 79/2/6 80/2/6 81/2/6
f 81/2/6 80/2/6 82/2/6
