# MagicaVoxel @ Ephtracy

# group
o 

# material
mtllib Log1.mtl
usemtl palette

# normals
vn -1 0 0
vn 1 0 0
vn 0 0 1
vn 0 0 -1
vn 0 -1 0
vn 0 1 0

# texcoords
vt 0.720703 0.5
vt 0.724609 0.5
vt 0.728516 0.5

# verts
v 0 2 0
v 0 2 -0.1
v 0 2 -0.3
v 0 2 -0.4
v 0 2.1 -0.1
v 0 2.1 -0.3
v 0 2.2 0
v 0 2.2 -0.4
v 0.8 2 0
v 0.8 2 -0.1
v 0.8 2 -0.3
v 0.8 2 -0.4
v 0.8 2.1 -0.1
v 0.8 2.1 -0.3
v 0.8 2.2 0
v 0.8 2.2 -0.4
v 0 2 0
v 0 2.2 0
v 0.1 2 0
v 0.1 2.2 0
v 0.2 2 0
v 0.2 2.1 0
v 0.4 2 0
v 0.4 2.1 0
v 0.5 2 0
v 0.5 2.1 0
v 0.6 2 0
v 0.6 2.1 0
v 0.7 2 0
v 0.7 2.2 0
v 0.8 2 0
v 0.8 2.2 0
v 0 2 -0.3
v 0 2.1 -0.3
v 0.1 2 -0.3
v 0.1 2.1 -0.3
v 0.4 2 -0.3
v 0.4 2.1 -0.3
v 0.7 2 -0.3
v 0.7 2.1 -0.3
v 0.8 2 -0.3
v 0.8 2.1 -0.3
v 0 2 -0.1
v 0 2.1 -0.1
v 0.1 2 -0.1
v 0.1 2.1 -0.1
v 0.2 2 -0.1
v 0.2 2.1 -0.1
v 0.4 2 -0.1
v 0.4 2.1 -0.1
v 0.5 2 -0.1
v 0.5 2.1 -0.1
v 0.6 2 -0.1
v 0.6 2.1 -0.1
v 0.7 2 -0.1
v 0.7 2.1 -0.1
v 0.8 2 -0.1
v 0.8 2.1 -0.1
v 0 2 -0.4
v 0 2.2 -0.4
v 0.1 2 -0.4
v 0.1 2.1 -0.4
v 0.1 2.2 -0.4
v 0.3 2.1 -0.4
v 0.3 2.2 -0.4
v 0.4 2 -0.4
v 0.4 2.1 -0.4
v 0.7 2 -0.4
v 0.7 2.1 -0.4
v 0.7 2.2 -0.4
v 0.8 2 -0.4
v 0.8 2.2 -0.4
v 0 2 0
v 0.1 2 0
v 0.2 2 0
v 0.4 2 0
v 0.5 2 0
v 0.6 2 0
v 0.7 2 0
v 0.8 2 0
v 0 2 -0.1
v 0.1 2 -0.1
v 0.2 2 -0.1
v 0.4 2 -0.1
v 0.5 2 -0.1
v 0.6 2 -0.1
v 0.7 2 -0.1
v 0.8 2 -0.1
v 0 2 -0.3
v 0.1 2 -0.3
v 0.4 2 -0.3
v 0.7 2 -0.3
v 0.8 2 -0.3
v 0 2 -0.4
v 0.1 2 -0.4
v 0.4 2 -0.4
v 0.7 2 -0.4
v 0.8 2 -0.4
v 0 2.1 -0.1
v 0.1 2.1 -0.1
v 0.2 2.1 -0.1
v 0.4 2.1 -0.1
v 0.5 2.1 -0.1
v 0.6 2.1 -0.1
v 0.7 2.1 -0.1
v 0.8 2.1 -0.1
v 0.1 2.1 -0.2
v 0.4 2.1 -0.2
v 0.5 2.1 -0.2
v 0.7 2.1 -0.2
v 0 2.1 -0.3
v 0.1 2.1 -0.3
v 0.4 2.1 -0.3
v 0.7 2.1 -0.3
v 0.8 2.1 -0.3
v 0 2.2 0
v 0.1 2.2 0
v 0.7 2.2 0
v 0.8 2.2 0
v 0.1 2.2 -0.1
v 0.4 2.2 -0.1
v 0.5 2.2 -0.1
v 0.7 2.2 -0.1
v 0.1 2.2 -0.2
v 0.4 2.2 -0.2
v 0.5 2.2 -0.2
v 0.7 2.2 -0.2
v 0.1 2.2 -0.3
v 0.3 2.2 -0.3
v 0 2.2 -0.4
v 0.1 2.2 -0.4
v 0.3 2.2 -0.4
v 0.7 2.2 -0.4
v 0.8 2.2 -0.4

# faces
f 5/1/1 2/1/1 1/1/1
f 6/1/1 4/1/1 3/1/1
f 7/1/1 5/1/1 1/1/1
f 7/1/1 6/1/1 5/1/1
f 8/1/1 4/1/1 6/1/1
f 8/1/1 6/1/1 7/1/1
f 9/1/2 10/1/2 13/1/2
f 11/1/2 12/1/2 14/1/2
f 9/1/2 13/1/2 15/1/2
f 13/1/2 14/1/2 15/1/2
f 14/1/2 12/1/2 16/1/2
f 15/1/2 14/1/2 16/1/2
f 19/1/3 18/1/3 17/1/3
f 20/1/3 18/1/3 19/1/3
f 21/2/3 20/2/3 19/2/3
f 22/2/3 20/2/3 21/2/3
f 23/3/3 22/3/3 21/3/3
f 24/2/3 20/2/3 22/2/3
f 24/3/3 22/3/3 23/3/3
f 25/2/3 24/2/3 23/2/3
f 26/2/3 20/2/3 24/2/3
f 26/2/3 24/2/3 25/2/3
f 27/3/3 26/3/3 25/3/3
f 28/2/3 20/2/3 26/2/3
f 28/3/3 26/3/3 27/3/3
f 29/2/3 28/2/3 27/2/3
f 30/2/3 20/2/3 28/2/3
f 30/2/3 28/2/3 29/2/3
f 31/1/3 30/1/3 29/1/3
f 32/1/3 30/1/3 31/1/3
f 35/1/3 34/1/3 33/1/3
f 36/1/3 34/1/3 35/1/3
f 37/2/3 36/2/3 35/2/3
f 38/2/3 36/2/3 37/2/3
f 39/3/3 38/3/3 37/3/3
f 40/3/3 38/3/3 39/3/3
f 41/1/3 40/1/3 39/1/3
f 42/1/3 40/1/3 41/1/3
f 43/1/4 44/1/4 45/1/4
f 45/1/4 44/1/4 46/1/4
f 45/2/4 46/2/4 47/2/4
f 47/2/4 46/2/4 48/2/4
f 47/3/4 48/3/4 49/3/4
f 49/3/4 48/3/4 50/3/4
f 49/2/4 50/2/4 51/2/4
f 51/2/4 50/2/4 52/2/4
f 51/3/4 52/3/4 53/3/4
f 53/3/4 52/3/4 54/3/4
f 53/2/4 54/2/4 55/2/4
f 55/2/4 54/2/4 56/2/4
f 55/1/4 56/1/4 57/1/4
f 57/1/4 56/1/4 58/1/4
f 59/1/4 60/1/4 61/1/4
f 61/1/4 60/1/4 62/1/4
f 62/1/4 60/1/4 63/1/4
f 61/2/4 62/2/4 64/2/4
f 62/3/4 63/3/4 64/3/4
f 64/3/4 63/3/4 65/3/4
f 61/2/4 64/2/4 66/2/4
f 64/2/4 65/2/4 66/2/4
f 66/2/4 65/2/4 67/2/4
f 66/3/4 67/3/4 68/3/4
f 67/2/4 65/2/4 69/2/4
f 68/3/4 67/3/4 69/3/4
f 69/2/4 65/2/4 70/2/4
f 68/1/4 69/1/4 71/1/4
f 69/1/4 70/1/4 71/1/4
f 71/1/4 70/1/4 72/1/4
f 81/1/5 74/1/5 73/1/5
f 82/2/5 75/2/5 74/2/5
f 82/1/5 74/1/5 81/1/5
f 83/3/5 76/3/5 75/3/5
f 83/2/5 75/2/5 82/2/5
f 84/2/5 77/2/5 76/2/5
f 84/3/5 76/3/5 83/3/5
f 85/3/5 78/3/5 77/3/5
f 85/2/5 77/2/5 84/2/5
f 86/2/5 79/2/5 78/2/5
f 86/3/5 78/3/5 85/3/5
f 87/1/5 80/1/5 79/1/5
f 87/2/5 79/2/5 86/2/5
f 88/1/5 80/1/5 87/1/5
f 94/1/5 90/1/5 89/1/5
f 95/2/5 91/2/5 90/2/5
f 95/1/5 90/1/5 94/1/5
f 96/3/5 92/3/5 91/3/5
f 96/2/5 91/2/5 95/2/5
f 97/1/5 93/1/5 92/1/5
f 97/3/5 92/3/5 96/3/5
f 98/1/5 93/1/5 97/1/5
f 107/1/5 100/1/5 99/1/5
f 107/3/5 101/3/5 100/3/5
f 107/3/5 102/3/5 101/3/5
f 108/2/5 103/2/5 102/2/5
f 108/3/5 102/3/5 107/3/5
f 109/3/5 105/3/5 104/3/5
f 109/2/5 103/2/5 108/2/5
f 109/3/5 104/3/5 103/3/5
f 110/1/5 106/1/5 105/1/5
f 110/3/5 105/3/5 109/3/5
f 111/1/5 107/1/5 99/1/5
f 112/2/5 109/2/5 108/2/5
f 112/1/5 107/1/5 111/1/5
f 112/2/5 108/2/5 107/2/5
f 112/2/5 110/2/5 109/2/5
f 113/2/5 110/2/5 112/2/5
f 114/1/5 106/1/5 110/1/5
f 114/2/5 110/2/5 113/2/5
f 115/1/5 106/1/5 114/1/5
f 116/1/6 117/1/6 120/1/6
f 117/2/6 118/2/6 120/2/6
f 120/2/6 118/2/6 121/2/6
f 121/2/6 118/2/6 122/2/6
f 118/1/6 119/1/6 123/1/6
f 122/2/6 118/2/6 123/2/6
f 116/1/6 120/1/6 124/1/6
f 120/3/6 121/3/6 124/3/6
f 121/2/6 122/2/6 125/2/6
f 124/3/6 121/3/6 125/3/6
f 122/3/6 123/3/6 126/3/6
f 125/2/6 122/2/6 126/2/6
f 123/1/6 119/1/6 127/1/6
f 126/3/6 123/3/6 127/3/6
f 116/1/6 124/1/6 128/1/6
f 125/2/6 126/2/6 128/2/6
f 126/2/6 127/2/6 128/2/6
f 124/2/6 125/2/6 128/2/6
f 128/2/6 127/2/6 129/2/6
f 116/1/6 128/1/6 130/1/6
f 128/3/6 129/3/6 131/3/6
f 130/1/6 128/1/6 131/1/6
f 129/2/6 127/2/6 132/2/6
f 131/3/6 129/3/6 132/3/6
f 127/1/6 119/1/6 133/1/6
f 132/2/6 127/2/6 133/2/6
f 133/1/6 119/1/6 134/1/6
