# MagicaVoxel @ Ephtracy

# group
o 

# material
mtllib BlueCar.mtl
usemtl palette

# normals
vn -1 0 0
vn 1 0 0
vn 0 0 1
vn 0 0 -1
vn 0 -1 0
vn 0 1 0

# texcoords
vt 0.939453 0.5
vt 0.943359 0.5
vt 0.947266 0.5
vt 0.951172 0.5
vt 0.955078 0.5
vt 0.958984 0.5
vt 0.962891 0.5

# verts
v 0 2.1 -0.1
v 0 2.1 -0.2
v 0 2.1 -0.5
v 0 2.1 -0.6
v 0 2.2 -0.1
v 0 2.2 -0.2
v 0 2.2 -0.5
v 0 2.2 -0.6
v 0 2.3 -0.1
v 0 2.3 -0.6
v 0 2.5 -0.1
v 0 2.5 -0.2
v 0 2.5 -0.5
v 0 2.5 -0.6
v 0 2.6 -0.2
v 0 2.6 -0.5
v 0.1 2 -0.1
v 0.1 2 -0.2
v 0.1 2 -0.5
v 0.1 2 -0.6
v 0.1 2.1 -0.1
v 0.1 2.1 -0.2
v 0.1 2.1 -0.5
v 0.1 2.1 -0.6
v 0.2 2.5 -0.1
v 0.2 2.5 -0.2
v 0.2 2.5 -0.5
v 0.2 2.5 -0.6
v 0.2 2.7 -0.2
v 0.2 2.7 -0.5
v 0.2 2.8 -0.1
v 0.2 2.8 -0.6
v 0.7 2 -0.1
v 0.7 2 -0.2
v 0.7 2 -0.5
v 0.7 2 -0.6
v 0.7 2.1 -0.1
v 0.7 2.1 -0.2
v 0.7 2.1 -0.5
v 0.7 2.1 -0.6
v 0.7 2.4 0
v 0.7 2.4 -0.1
v 0.7 2.4 -0.6
v 0.7 2.4 -0.7
v 0.7 2.5 -0.1
v 0.7 2.5 -0.2
v 0.7 2.5 -0.5
v 0.7 2.5 -0.6
v 0.7 2.6 0
v 0.7 2.6 -0.1
v 0.7 2.6 -0.6
v 0.7 2.6 -0.7
v 0.7 2.7 -0.2
v 0.7 2.7 -0.5
v 0.8 2.4 -0.2
v 0.8 2.4 -0.5
v 0.8 2.5 -0.2
v 0.8 2.5 -0.5
v 1 2.3 -0.2
v 1 2.3 -0.5
v 1 2.4 -0.2
v 1 2.4 -0.5
v 0.1 2.3 -0.2
v 0.1 2.3 -0.5
v 0.1 2.4 -0.2
v 0.1 2.4 -0.5
v 0.1 2.5 -0.2
v 0.1 2.5 -0.5
v 0.1 2.6 -0.2
v 0.1 2.6 -0.5
v 0.2 2.4 -0.2
v 0.2 2.4 -0.5
v 0.2 2.5 -0.2
v 0.2 2.5 -0.5
v 0.3 2.5 -0.2
v 0.3 2.5 -0.5
v 0.3 2.7 -0.2
v 0.3 2.7 -0.5
v 0.4 2 -0.1
v 0.4 2 -0.2
v 0.4 2 -0.5
v 0.4 2 -0.6
v 0.4 2.1 -0.1
v 0.4 2.1 -0.2
v 0.4 2.1 -0.5
v 0.4 2.1 -0.6
v 0.8 2.4 0
v 0.8 2.4 -0.1
v 0.8 2.4 -0.6
v 0.8 2.4 -0.7
v 0.8 2.5 -0.1
v 0.8 2.5 -0.2
v 0.8 2.5 -0.5
v 0.8 2.5 -0.6
v 0.8 2.6 0
v 0.8 2.6 -0.1
v 0.8 2.6 -0.6
v 0.8 2.6 -0.7
v 0.8 2.7 -0.2
v 0.8 2.7 -0.5
v 0.8 2.8 -0.1
v 0.8 2.8 -0.6
v 1 2 -0.1
v 1 2 -0.2
v 1 2 -0.5
v 1 2 -0.6
v 1 2.1 -0.1
v 1 2.1 -0.2
v 1 2.1 -0.5
v 1 2.1 -0.6
v 1.1 2.1 -0.1
v 1.1 2.1 -0.2
v 1.1 2.1 -0.5
v 1.1 2.1 -0.6
v 1.1 2.2 -0.1
v 1.1 2.2 -0.2
v 1.1 2.2 -0.5
v 1.1 2.2 -0.6
v 1.1 2.3 -0.1
v 1.1 2.3 -0.2
v 1.1 2.3 -0.5
v 1.1 2.3 -0.6
v 1.1 2.4 -0.1
v 1.1 2.4 -0.2
v 1.1 2.4 -0.5
v 1.1 2.4 -0.6
v 1.1 2.5 -0.1
v 1.1 2.5 -0.2
v 1.1 2.5 -0.5
v 1.1 2.5 -0.6
v 0.7 2.4 0
v 0.7 2.6 0
v 0.8 2.4 0
v 0.8 2.6 0
v 0 2.1 -0.1
v 0 2.2 -0.1
v 0 2.3 -0.1
v 0 2.5 -0.1
v 0.1 2 -0.1
v 0.1 2.1 -0.1
v 0.1 2.2 -0.1
v 0.1 2.3 -0.1
v 0.2 2.1 -0.1
v 0.2 2.2 -0.1
v 0.2 2.5 -0.1
v 0.2 2.8 -0.1
v 0.3 2.1 -0.1
v 0.3 2.2 -0.1
v 0.3 2.5 -0.1
v 0.3 2.7 -0.1
v 0.4 2 -0.1
v 0.4 2.1 -0.1
v 0.4 2.2 -0.1
v 0.4 2.3 -0.1
v 0.4 2.5 -0.1
v 0.4 2.7 -0.1
v 0.7 2 -0.1
v 0.7 2.1 -0.1
v 0.7 2.2 -0.1
v 0.7 2.3 -0.1
v 0.7 2.4 -0.1
v 0.7 2.5 -0.1
v 0.7 2.6 -0.1
v 0.7 2.7 -0.1
v 0.8 2.1 -0.1
v 0.8 2.2 -0.1
v 0.8 2.4 -0.1
v 0.8 2.5 -0.1
v 0.8 2.6 -0.1
v 0.8 2.8 -0.1
v 0.9 2.1 -0.1
v 0.9 2.2 -0.1
v 1 2 -0.1
v 1 2.1 -0.1
v 1 2.2 -0.1
v 1 2.3 -0.1
v 1 2.4 -0.1
v 1.1 2.1 -0.1
v 1.1 2.2 -0.1
v 1.1 2.3 -0.1
v 1.1 2.4 -0.1
v 1.1 2.5 -0.1
v 0 2.5 -0.2
v 0 2.6 -0.2
v 0.1 2.5 -0.2
v 0.1 2.6 -0.2
v 0 2.1 -0.5
v 0 2.2 -0.5
v 0.1 2 -0.5
v 0.1 2.1 -0.5
v 0.1 2.2 -0.5
v 0.1 2.3 -0.5
v 0.1 2.4 -0.5
v 0.2 2.1 -0.5
v 0.2 2.2 -0.5
v 0.2 2.4 -0.5
v 0.2 2.5 -0.5
v 0.3 2.1 -0.5
v 0.3 2.2 -0.5
v 0.3 2.5 -0.5
v 0.3 2.7 -0.5
v 0.4 2 -0.5
v 0.4 2.1 -0.5
v 0.4 2.2 -0.5
v 0.4 2.5 -0.5
v 0.4 2.7 -0.5
v 0.7 2 -0.5
v 0.7 2.1 -0.5
v 0.7 2.2 -0.5
v 0.7 2.5 -0.5
v 0.7 2.7 -0.5
v 0.8 2.1 -0.5
v 0.8 2.2 -0.5
v 0.8 2.4 -0.5
v 0.8 2.5 -0.5
v 0.9 2.1 -0.5
v 0.9 2.2 -0.5
v 1 2 -0.5
v 1 2.1 -0.5
v 1 2.2 -0.5
v 1 2.3 -0.5
v 1 2.4 -0.5
v 1.1 2.1 -0.5
v 1.1 2.2 -0.5
v 0 2.1 -0.2
v 0 2.2 -0.2
v 0.1 2 -0.2
v 0.1 2.1 -0.2
v 0.1 2.2 -0.2
v 0.1 2.3 -0.2
v 0.1 2.4 -0.2
v 0.2 2.1 -0.2
v 0.2 2.2 -0.2
v 0.2 2.4 -0.2
v 0.2 2.5 -0.2
v 0.3 2.1 -0.2
v 0.3 2.2 -0.2
v 0.3 2.5 -0.2
v 0.3 2.7 -0.2
v 0.4 2 -0.2
v 0.4 2.1 -0.2
v 0.4 2.2 -0.2
v 0.4 2.5 -0.2
v 0.4 2.7 -0.2
v 0.7 2 -0.2
v 0.7 2.1 -0.2
v 0.7 2.2 -0.2
v 0.7 2.5 -0.2
v 0.7 2.7 -0.2
v 0.8 2.1 -0.2
v 0.8 2.2 -0.2
v 0.8 2.4 -0.2
v 0.8 2.5 -0.2
v 0.9 2.1 -0.2
v 0.9 2.2 -0.2
v 1 2 -0.2
v 1 2.1 -0.2
v 1 2.2 -0.2
v 1 2.3 -0.2
v 1 2.4 -0.2
v 1.1 2.1 -0.2
v 1.1 2.2 -0.2
v 0 2.5 -0.5
v 0 2.6 -0.5
v 0.1 2.5 -0.5
v 0.1 2.6 -0.5
v 0 2.1 -0.6
v 0 2.2 -0.6
v 0 2.3 -0.6
v 0 2.5 -0.6
v 0.1 2 -0.6
v 0.1 2.1 -0.6
v 0.1 2.2 -0.6
v 0.1 2.3 -0.6
v 0.2 2.1 -0.6
v 0.2 2.2 -0.6
v 0.2 2.5 -0.6
v 0.2 2.8 -0.6
v 0.3 2.1 -0.6
v 0.3 2.2 -0.6
v 0.3 2.5 -0.6
v 0.3 2.7 -0.6
v 0.4 2 -0.6
v 0.4 2.1 -0.6
v 0.4 2.2 -0.6
v 0.4 2.3 -0.6
v 0.4 2.5 -0.6
v 0.4 2.7 -0.6
v 0.7 2 -0.6
v 0.7 2.1 -0.6
v 0.7 2.2 -0.6
v 0.7 2.3 -0.6
v 0.7 2.4 -0.6
v 0.7 2.5 -0.6
v 0.7 2.6 -0.6
v 0.7 2.7 -0.6
v 0.8 2.1 -0.6
v 0.8 2.2 -0.6
v 0.8 2.4 -0.6
v 0.8 2.5 -0.6
v 0.8 2.6 -0.6
v 0.8 2.8 -0.6
v 0.9 2.1 -0.6
v 0.9 2.2 -0.6
v 1 2 -0.6
v 1 2.1 -0.6
v 1 2.2 -0.6
v 1 2.3 -0.6
v 1 2.4 -0.6
v 1.1 2.1 -0.6
v 1.1 2.2 -0.6
v 1.1 2.3 -0.6
v 1.1 2.4 -0.6
v 1.1 2.5 -0.6
v 0.7 2.4 -0.7
v 0.7 2.6 -0.7
v 0.8 2.4 -0.7
v 0.8 2.6 -0.7
v 0.1 2 -0.1
v 0.4 2 -0.1
v 0.7 2 -0.1
v 1 2 -0.1
v 0.1 2 -0.2
v 0.4 2 -0.2
v 0.7 2 -0.2
v 1 2 -0.2
v 0.1 2 -0.5
v 0.4 2 -0.5
v 0.7 2 -0.5
v 1 2 -0.5
v 0.1 2 -0.6
v 0.4 2 -0.6
v 0.7 2 -0.6
v 1 2 -0.6
v 0 2.1 -0.1
v 0.1 2.1 -0.1
v 0.4 2.1 -0.1
v 0.7 2.1 -0.1
v 1 2.1 -0.1
v 1.1 2.1 -0.1
v 0 2.1 -0.2
v 0.1 2.1 -0.2
v 0.4 2.1 -0.2
v 0.7 2.1 -0.2
v 1 2.1 -0.2
v 1.1 2.1 -0.2
v 0 2.1 -0.5
v 0.1 2.1 -0.5
v 0.4 2.1 -0.5
v 0.7 2.1 -0.5
v 1 2.1 -0.5
v 1.1 2.1 -0.5
v 0 2.1 -0.6
v 0.1 2.1 -0.6
v 0.4 2.1 -0.6
v 0.7 2.1 -0.6
v 1 2.1 -0.6
v 1.1 2.1 -0.6
v 0 2.2 -0.2
v 0.1 2.2 -0.2
v 0.2 2.2 -0.2
v 0.3 2.2 -0.2
v 0.4 2.2 -0.2
v 0.7 2.2 -0.2
v 0.8 2.2 -0.2
v 0.9 2.2 -0.2
v 1 2.2 -0.2
v 1.1 2.2 -0.2
v 0 2.2 -0.5
v 0.1 2.2 -0.5
v 0.2 2.2 -0.5
v 0.3 2.2 -0.5
v 0.4 2.2 -0.5
v 0.7 2.2 -0.5
v 0.8 2.2 -0.5
v 0.9 2.2 -0.5
v 1 2.2 -0.5
v 1.1 2.2 -0.5
v 0.7 2.4 0
v 0.8 2.4 0
v 0.7 2.4 -0.1
v 0.8 2.4 -0.1
v 0.1 2.4 -0.2
v 0.2 2.4 -0.2
v 0.8 2.4 -0.2
v 1 2.4 -0.2
v 0.1 2.4 -0.5
v 0.2 2.4 -0.5
v 0.8 2.4 -0.5
v 1 2.4 -0.5
v 0.7 2.4 -0.6
v 0.8 2.4 -0.6
v 0.7 2.4 -0.7
v 0.8 2.4 -0.7
v 0.2 2.5 -0.2
v 0.3 2.5 -0.2
v 0.7 2.5 -0.2
v 0.8 2.5 -0.2
v 0.2 2.5 -0.5
v 0.3 2.5 -0.5
v 0.7 2.5 -0.5
v 0.8 2.5 -0.5
v 0.3 2.7 -0.2
v 0.4 2.7 -0.2
v 0.7 2.7 -0.2
v 0.3 2.7 -0.5
v 0.4 2.7 -0.5
v 0.7 2.7 -0.5
v 0.1 2.3 -0.2
v 1 2.3 -0.2
v 0.1 2.3 -0.5
v 1 2.3 -0.5
v 0 2.5 -0.1
v 0.2 2.5 -0.1
v 0.8 2.5 -0.1
v 1.1 2.5 -0.1
v 0 2.5 -0.2
v 0.1 2.5 -0.2
v 0.2 2.5 -0.2
v 0.8 2.5 -0.2
v 1.1 2.5 -0.2
v 0 2.5 -0.5
v 0.1 2.5 -0.5
v 0.2 2.5 -0.5
v 0.8 2.5 -0.5
v 1.1 2.5 -0.5
v 0 2.5 -0.6
v 0.2 2.5 -0.6
v 0.8 2.5 -0.6
v 1.1 2.5 -0.6
v 0.7 2.6 0
v 0.8 2.6 0
v 0.7 2.6 -0.1
v 0.8 2.6 -0.1
v 0 2.6 -0.2
v 0.1 2.6 -0.2
v 0 2.6 -0.5
v 0.1 2.6 -0.5
v 0.7 2.6 -0.6
v 0.8 2.6 -0.6
v 0.7 2.6 -0.7
v 0.8 2.6 -0.7
v 0.2 2.8 -0.1
v 0.8 2.8 -0.1
v 0.2 2.8 -0.6
v 0.8 2.8 -0.6

# faces
f 5/4/1 2/4/1 1/4/1
f 6/4/1 2/4/1 5/4/1
f 7/4/1 4/4/1 3/4/1
f 8/4/1 4/4/1 7/4/1
f 9/3/1 6/3/1 5/3/1
f 9/3/1 7/3/1 6/3/1
f 9/3/1 8/3/1 7/3/1
f 10/3/1 8/3/1 9/3/1
f 11/2/1 10/2/1 9/2/1
f 12/2/1 10/2/1 11/2/1
f 13/2/1 10/2/1 12/2/1
f 14/2/1 10/2/1 13/2/1
f 15/7/1 13/7/1 12/7/1
f 16/7/1 13/7/1 15/7/1
f 21/5/1 18/5/1 17/5/1
f 22/5/1 18/5/1 21/5/1
f 23/5/1 20/5/1 19/5/1
f 24/5/1 20/5/1 23/5/1
f 29/1/1 26/1/1 25/1/1
f 29/6/1 27/6/1 26/6/1
f 30/1/1 28/1/1 27/1/1
f 30/6/1 27/6/1 29/6/1
f 31/1/1 29/1/1 25/1/1
f 31/1/1 30/1/1 29/1/1
f 32/1/1 28/1/1 30/1/1
f 32/1/1 30/1/1 31/1/1
f 37/5/1 34/5/1 33/5/1
f 38/5/1 34/5/1 37/5/1
f 39/5/1 36/5/1 35/5/1
f 40/5/1 36/5/1 39/5/1
f 45/4/1 42/4/1 41/4/1
f 48/4/1 44/4/1 43/4/1
f 49/4/1 45/4/1 41/4/1
f 50/4/1 45/4/1 49/4/1
f 51/4/1 44/4/1 48/4/1
f 52/4/1 44/4/1 51/4/1
f 53/5/1 47/5/1 46/5/1
f 54/5/1 47/5/1 53/5/1
f 57/3/1 56/3/1 55/3/1
f 58/3/1 56/3/1 57/3/1
f 61/7/1 60/7/1 59/7/1
f 62/7/1 60/7/1 61/7/1
f 63/2/2 64/2/2 65/2/2
f 65/2/2 64/2/2 66/2/2
f 67/7/2 68/7/2 69/7/2
f 69/7/2 68/7/2 70/7/2
f 71/2/2 72/2/2 73/2/2
f 73/2/2 72/2/2 74/2/2
f 75/6/2 76/6/2 77/6/2
f 77/6/2 76/6/2 78/6/2
f 79/5/2 80/5/2 83/5/2
f 83/5/2 80/5/2 84/5/2
f 81/5/2 82/5/2 85/5/2
f 85/5/2 82/5/2 86/5/2
f 87/4/2 88/4/2 91/4/2
f 89/4/2 90/4/2 94/4/2
f 87/4/2 91/4/2 95/4/2
f 91/1/2 92/1/2 96/1/2
f 95/4/2 91/4/2 96/4/2
f 93/1/2 94/1/2 97/1/2
f 94/4/2 90/4/2 97/4/2
f 97/4/2 90/4/2 98/4/2
f 92/5/2 93/5/2 99/5/2
f 96/1/2 92/1/2 99/1/2
f 93/1/2 97/1/2 100/1/2
f 99/5/2 93/5/2 100/5/2
f 96/1/2 99/1/2 101/1/2
f 99/1/2 100/1/2 101/1/2
f 100/1/2 97/1/2 102/1/2
f 101/1/2 100/1/2 102/1/2
f 103/5/2 104/5/2 107/5/2
f 107/5/2 104/5/2 108/5/2
f 105/5/2 106/5/2 109/5/2
f 109/5/2 106/5/2 110/5/2
f 111/4/2 112/4/2 115/4/2
f 115/4/2 112/4/2 116/4/2
f 113/4/2 114/4/2 117/4/2
f 117/4/2 114/4/2 118/4/2
f 115/3/2 116/3/2 119/3/2
f 116/3/2 117/3/2 119/3/2
f 117/3/2 118/3/2 119/3/2
f 119/3/2 118/3/2 120/3/2
f 120/3/2 118/3/2 121/3/2
f 121/3/2 118/3/2 122/3/2
f 119/1/2 120/1/2 123/1/2
f 120/7/2 121/7/2 124/7/2
f 123/1/2 120/1/2 124/1/2
f 121/1/2 122/1/2 125/1/2
f 124/7/2 121/7/2 125/7/2
f 125/1/2 122/1/2 126/1/2
f 123/2/2 124/2/2 127/2/2
f 124/3/2 125/3/2 128/3/2
f 127/2/2 124/2/2 128/2/2
f 125/2/2 126/2/2 129/2/2
f 128/3/2 125/3/2 129/3/2
f 129/2/2 126/2/2 130/2/2
f 133/4/3 132/4/3 131/4/3
f 134/4/3 132/4/3 133/4/3
f 140/4/3 136/4/3 135/4/3
f 141/3/3 137/3/3 136/3/3
f 141/4/3 136/4/3 140/4/3
f 142/2/3 138/2/3 137/2/3
f 142/3/3 137/3/3 141/3/3
f 143/5/3 141/5/3 140/5/3
f 143/5/3 140/5/3 139/5/3
f 143/5/3 142/5/3 141/5/3
f 144/5/3 142/5/3 143/5/3
f 145/2/3 138/2/3 142/2/3
f 147/5/3 143/5/3 139/5/3
f 147/1/3 144/1/3 143/1/3
f 148/5/3 142/5/3 144/5/3
f 148/1/3 144/1/3 147/1/3
f 149/1/3 146/1/3 145/1/3
f 149/2/3 145/2/3 142/2/3
f 150/1/3 146/1/3 149/1/3
f 151/5/3 147/5/3 139/5/3
f 151/5/3 148/5/3 147/5/3
f 152/5/3 148/5/3 151/5/3
f 153/5/3 142/5/3 148/5/3
f 153/5/3 148/5/3 152/5/3
f 154/2/3 149/2/3 142/2/3
f 154/5/3 142/5/3 153/5/3
f 155/6/3 150/6/3 149/6/3
f 155/2/3 149/2/3 154/2/3
f 156/1/3 146/1/3 150/1/3
f 156/6/3 150/6/3 155/6/3
f 158/4/3 153/4/3 152/4/3
f 159/3/3 154/3/3 153/3/3
f 159/4/3 153/4/3 158/4/3
f 160/2/3 155/2/3 154/2/3
f 160/3/3 154/3/3 159/3/3
f 161/2/3 155/2/3 160/2/3
f 162/5/3 156/5/3 155/5/3
f 162/2/3 155/2/3 161/2/3
f 163/5/3 156/5/3 162/5/3
f 164/1/3 146/1/3 156/1/3
f 164/5/3 156/5/3 163/5/3
f 165/5/3 159/5/3 158/5/3
f 165/5/3 158/5/3 157/5/3
f 165/5/3 160/5/3 159/5/3
f 166/5/3 160/5/3 165/5/3
f 167/2/3 161/2/3 160/2/3
f 169/1/3 164/1/3 163/1/3
f 170/1/3 146/1/3 164/1/3
f 170/1/3 164/1/3 169/1/3
f 171/5/3 165/5/3 157/5/3
f 171/1/3 166/1/3 165/1/3
f 172/5/3 160/5/3 166/5/3
f 172/1/3 166/1/3 171/1/3
f 173/5/3 171/5/3 157/5/3
f 173/5/3 172/5/3 171/5/3
f 174/5/3 172/5/3 173/5/3
f 175/5/3 160/5/3 172/5/3
f 175/5/3 172/5/3 174/5/3
f 176/2/3 168/2/3 167/2/3
f 176/5/3 160/5/3 175/5/3
f 176/2/3 167/2/3 160/2/3
f 177/2/3 168/2/3 176/2/3
f 178/4/3 175/4/3 174/4/3
f 179/3/3 176/3/3 175/3/3
f 179/4/3 175/4/3 178/4/3
f 180/1/3 177/1/3 176/1/3
f 180/3/3 176/3/3 179/3/3
f 181/2/3 168/2/3 177/2/3
f 181/1/3 177/1/3 180/1/3
f 182/2/3 168/2/3 181/2/3
f 185/7/3 184/7/3 183/7/3
f 186/7/3 184/7/3 185/7/3
f 190/4/3 188/4/3 187/4/3
f 191/4/3 188/4/3 190/4/3
f 194/5/3 190/5/3 189/5/3
f 194/5/3 191/5/3 190/5/3
f 195/5/3 191/5/3 194/5/3
f 196/2/3 193/2/3 192/2/3
f 198/1/3 195/1/3 194/1/3
f 198/5/3 194/5/3 189/5/3
f 199/1/3 195/1/3 198/1/3
f 200/2/3 197/2/3 196/2/3
f 202/5/3 199/5/3 198/5/3
f 202/5/3 198/5/3 189/5/3
f 203/5/3 199/5/3 202/5/3
f 204/5/3 199/5/3 203/5/3
f 205/6/3 201/6/3 200/6/3
f 205/2/3 200/2/3 196/2/3
f 206/6/3 201/6/3 205/6/3
f 208/4/3 204/4/3 203/4/3
f 209/4/3 204/4/3 208/4/3
f 210/5/3 206/5/3 205/5/3
f 210/2/3 205/2/3 196/2/3
f 211/5/3 206/5/3 210/5/3
f 212/5/3 209/5/3 208/5/3
f 212/5/3 208/5/3 207/5/3
f 213/5/3 209/5/3 212/5/3
f 214/2/3 196/2/3 192/2/3
f 214/2/3 210/2/3 196/2/3
f 215/2/3 210/2/3 214/2/3
f 216/1/3 213/1/3 212/1/3
f 216/5/3 212/5/3 207/5/3
f 217/1/3 213/1/3 216/1/3
f 218/5/3 216/5/3 207/5/3
f 218/5/3 217/5/3 216/5/3
f 219/5/3 217/5/3 218/5/3
f 220/5/3 217/5/3 219/5/3
f 221/2/3 214/2/3 192/2/3
f 222/2/3 214/2/3 221/2/3
f 223/4/3 220/4/3 219/4/3
f 224/4/3 220/4/3 223/4/3
f 225/4/4 226/4/4 228/4/4
f 228/4/4 226/4/4 229/4/4
f 227/5/4 228/5/4 232/5/4
f 228/5/4 229/5/4 232/5/4
f 232/5/4 229/5/4 233/5/4
f 230/2/4 231/2/4 234/2/4
f 232/1/4 233/1/4 236/1/4
f 227/5/4 232/5/4 236/5/4
f 236/1/4 233/1/4 237/1/4
f 234/2/4 235/2/4 238/2/4
f 236/5/4 237/5/4 240/5/4
f 227/5/4 236/5/4 240/5/4
f 240/5/4 237/5/4 241/5/4
f 241/5/4 237/5/4 242/5/4
f 238/6/4 239/6/4 243/6/4
f 234/2/4 238/2/4 243/2/4
f 243/6/4 239/6/4 244/6/4
f 241/4/4 242/4/4 246/4/4
f 246/4/4 242/4/4 247/4/4
f 243/5/4 244/5/4 248/5/4
f 234/2/4 243/2/4 248/2/4
f 248/5/4 244/5/4 249/5/4
f 246/5/4 247/5/4 250/5/4
f 245/5/4 246/5/4 250/5/4
f 250/5/4 247/5/4 251/5/4
f 230/2/4 234/2/4 252/2/4
f 234/2/4 248/2/4 252/2/4
f 252/2/4 248/2/4 253/2/4
f 250/1/4 251/1/4 254/1/4
f 245/5/4 250/5/4 254/5/4
f 254/1/4 251/1/4 255/1/4
f 245/5/4 254/5/4 256/5/4
f 254/5/4 255/5/4 256/5/4
f 256/5/4 255/5/4 257/5/4
f 257/5/4 255/5/4 258/5/4
f 230/2/4 252/2/4 259/2/4
f 259/2/4 252/2/4 260/2/4
f 257/4/4 258/4/4 261/4/4
f 261/4/4 258/4/4 262/4/4
f 263/7/4 264/7/4 265/7/4
f 265/7/4 264/7/4 266/7/4
f 267/4/4 268/4/4 272/4/4
f 268/3/4 269/3/4 273/3/4
f 272/4/4 268/4/4 273/4/4
f 269/2/4 270/2/4 274/2/4
f 273/3/4 269/3/4 274/3/4
f 272/5/4 273/5/4 275/5/4
f 271/5/4 272/5/4 275/5/4
f 273/5/4 274/5/4 275/5/4
f 275/5/4 274/5/4 276/5/4
f 274/2/4 270/2/4 277/2/4
f 271/5/4 275/5/4 279/5/4
f 275/1/4 276/1/4 279/1/4
f 276/5/4 274/5/4 280/5/4
f 279/1/4 276/1/4 280/1/4
f 277/1/4 278/1/4 281/1/4
f 274/2/4 277/2/4 281/2/4
f 281/1/4 278/1/4 282/1/4
f 271/5/4 279/5/4 283/5/4
f 279/5/4 280/5/4 283/5/4
f 283/5/4 280/5/4 284/5/4
f 280/5/4 274/5/4 285/5/4
f 284/5/4 280/5/4 285/5/4
f 274/2/4 281/2/4 286/2/4
f 285/5/4 274/5/4 286/5/4
f 281/6/4 282/6/4 287/6/4
f 286/2/4 281/2/4 287/2/4
f 282/1/4 278/1/4 288/1/4
f 287/6/4 282/6/4 288/6/4
f 284/4/4 285/4/4 290/4/4
f 285/3/4 286/3/4 291/3/4
f 290/4/4 285/4/4 291/4/4
f 286/2/4 287/2/4 292/2/4
f 291/3/4 286/3/4 292/3/4
f 292/2/4 287/2/4 293/2/4
f 287/5/4 288/5/4 294/5/4
f 293/2/4 287/2/4 294/2/4
f 294/5/4 288/5/4 295/5/4
f 288/1/4 278/1/4 296/1/4
f 295/5/4 288/5/4 296/5/4
f 290/5/4 291/5/4 297/5/4
f 289/5/4 290/5/4 297/5/4
f 291/5/4 292/5/4 297/5/4
f 297/5/4 292/5/4 298/5/4
f 292/2/4 293/2/4 299/2/4
f 295/1/4 296/1/4 301/1/4
f 296/1/4 278/1/4 302/1/4
f 301/1/4 296/1/4 302/1/4
f 289/5/4 297/5/4 303/5/4
f 297/1/4 298/1/4 303/1/4
f 298/5/4 292/5/4 304/5/4
f 303/1/4 298/1/4 304/1/4
f 289/5/4 303/5/4 305/5/4
f 303/5/4 304/5/4 305/5/4
f 305/5/4 304/5/4 306/5/4
f 304/5/4 292/5/4 307/5/4
f 306/5/4 304/5/4 307/5/4
f 299/2/4 300/2/4 308/2/4
f 307/5/4 292/5/4 308/5/4
f 292/2/4 299/2/4 308/2/4
f 308/2/4 300/2/4 309/2/4
f 306/4/4 307/4/4 310/4/4
f 307/3/4 308/3/4 311/3/4
f 310/4/4 307/4/4 311/4/4
f 308/1/4 309/1/4 312/1/4
f 311/3/4 308/3/4 312/3/4
f 309/2/4 300/2/4 313/2/4
f 312/1/4 309/1/4 313/1/4
f 313/2/4 300/2/4 314/2/4
f 315/4/4 316/4/4 317/4/4
f 317/4/4 316/4/4 318/4/4
f 323/5/5 320/5/5 319/5/5
f 324/5/5 320/5/5 323/5/5
f 325/5/5 322/5/5 321/5/5
f 326/5/5 322/5/5 325/5/5
f 331/5/5 328/5/5 327/5/5
f 332/5/5 328/5/5 331/5/5
f 333/5/5 330/5/5 329/5/5
f 334/5/5 330/5/5 333/5/5
f 341/4/5 336/4/5 335/4/5
f 342/4/5 336/4/5 341/4/5
f 343/4/5 338/4/5 337/4/5
f 344/4/5 338/4/5 343/4/5
f 345/4/5 340/4/5 339/4/5
f 346/4/5 340/4/5 345/4/5
f 353/4/5 348/4/5 347/4/5
f 354/4/5 348/4/5 353/4/5
f 355/4/5 350/4/5 349/4/5
f 356/4/5 350/4/5 355/4/5
f 357/4/5 352/4/5 351/4/5
f 358/4/5 352/4/5 357/4/5
f 369/3/5 360/3/5 359/3/5
f 369/3/5 368/3/5 367/3/5
f 369/3/5 367/3/5 366/3/5
f 369/3/5 366/3/5 365/3/5
f 369/3/5 365/3/5 364/3/5
f 369/3/5 364/3/5 363/3/5
f 369/3/5 363/3/5 362/3/5
f 369/3/5 362/3/5 361/3/5
f 369/3/5 361/3/5 360/3/5
f 370/3/5 368/3/5 369/3/5
f 371/3/5 368/3/5 370/3/5
f 372/3/5 368/3/5 371/3/5
f 373/3/5 368/3/5 372/3/5
f 374/3/5 368/3/5 373/3/5
f 375/3/5 368/3/5 374/3/5
f 376/3/5 368/3/5 375/3/5
f 377/3/5 368/3/5 376/3/5
f 378/3/5 368/3/5 377/3/5
f 381/4/5 380/4/5 379/4/5
f 382/4/5 380/4/5 381/4/5
f 387/2/5 384/2/5 383/2/5
f 388/2/5 384/2/5 387/2/5
f 389/3/5 386/3/5 385/3/5
f 390/3/5 386/3/5 389/3/5
f 393/4/5 392/4/5 391/4/5
f 394/4/5 392/4/5 393/4/5
f 399/6/5 396/6/5 395/6/5
f 400/6/5 396/6/5 399/6/5
f 401/5/5 398/5/5 397/5/5
f 402/5/5 398/5/5 401/5/5
f 406/1/5 404/1/5 403/1/5
f 406/1/5 405/1/5 404/1/5
f 407/1/5 405/1/5 406/1/5
f 408/1/5 405/1/5 407/1/5
f 409/3/6 410/3/6 411/3/6
f 411/3/6 410/3/6 412/3/6
f 413/2/6 414/2/6 417/2/6
f 417/2/6 414/2/6 418/2/6
f 418/2/6 414/2/6 419/2/6
f 415/2/6 416/2/6 420/2/6
f 420/2/6 416/2/6 421/2/6
f 418/2/6 419/2/6 423/2/6
f 423/2/6 419/2/6 424/2/6
f 420/3/6 421/3/6 425/3/6
f 425/3/6 421/3/6 426/3/6
f 423/2/6 424/2/6 427/2/6
f 422/2/6 423/2/6 427/2/6
f 427/2/6 424/2/6 428/2/6
f 425/2/6 426/2/6 429/2/6
f 429/2/6 426/2/6 430/2/6
f 431/4/6 432/4/6 433/4/6
f 433/4/6 432/4/6 434/4/6
f 435/7/6 436/7/6 437/7/6
f 437/7/6 436/7/6 438/7/6
f 439/4/6 440/4/6 441/4/6
f 441/4/6 440/4/6 442/4/6
f 443/1/6 444/1/6 445/1/6
f 445/1/6 444/1/6 446/1/6
