# MagicaVoxel @ Ephtracy

# group
o 

# material
mtllib Log2.mtl
usemtl palette

# normals
vn -1 0 0
vn 1 0 0
vn 0 0 1
vn 0 0 -1
vn 0 -1 0
vn 0 1 0

# texcoords
vt 0.720703 0.5
vt 0.724609 0.5
vt 0.728516 0.5

# verts
v 0 2 0
v 0 2 -0.1
v 0 2 -0.3
v 0 2 -0.4
v 0 2.1 -0.1
v 0 2.1 -0.3
v 0 2.2 0
v 0 2.2 -0.4
v 1.6 2 0
v 1.6 2 -0.1
v 1.6 2 -0.3
v 1.6 2 -0.4
v 1.6 2.1 -0.1
v 1.6 2.1 -0.3
v 1.6 2.2 0
v 1.6 2.2 -0.4
v 0 2 0
v 0 2.2 0
v 0.1 2 0
v 0.1 2.2 0
v 0.2 2 0
v 0.2 2.1 0
v 0.5 2 0
v 0.5 2.1 0
v 0.6 2.1 0
v 0.6 2.2 0
v 0.9 2.1 0
v 0.9 2.2 0
v 1 2 0
v 1 2.1 0
v 1.1 2 0
v 1.1 2.1 0
v 1.2 2 0
v 1.2 2.1 0
v 1.4 2 0
v 1.4 2.1 0
v 1.5 2 0
v 1.5 2.2 0
v 1.6 2 0
v 1.6 2.2 0
v 0 2 -0.3
v 0 2.1 -0.3
v 0.1 2 -0.3
v 0.1 2.1 -0.3
v 0.6 2 -0.3
v 0.6 2.1 -0.3
v 0.8 2 -0.3
v 0.8 2.1 -0.3
v 1 2.1 -0.3
v 1.1 2 -0.3
v 1.1 2.1 -0.3
v 1.4 2 -0.3
v 1.4 2.1 -0.3
v 1.5 2 -0.3
v 1.5 2.1 -0.3
v 1.6 2 -0.3
v 1.6 2.1 -0.3
v 0 2 -0.1
v 0 2.1 -0.1
v 0.1 2 -0.1
v 0.1 2.1 -0.1
v 0.2 2 -0.1
v 0.2 2.1 -0.1
v 0.4 2.1 -0.1
v 0.5 2 -0.1
v 0.5 2.1 -0.1
v 0.6 2.1 -0.1
v 0.7 2.1 -0.1
v 0.9 2.1 -0.1
v 1 2 -0.1
v 1 2.1 -0.1
v 1.1 2 -0.1
v 1.1 2.1 -0.1
v 1.2 2 -0.1
v 1.2 2.1 -0.1
v 1.4 2 -0.1
v 1.4 2.1 -0.1
v 1.5 2 -0.1
v 1.5 2.1 -0.1
v 1.6 2 -0.1
v 1.6 2.1 -0.1
v 0 2 -0.4
v 0 2.2 -0.4
v 0.1 2 -0.4
v 0.1 2.2 -0.4
v 0.2 2.1 -0.4
v 0.2 2.2 -0.4
v 0.5 2.1 -0.4
v 0.5 2.2 -0.4
v 0.6 2 -0.4
v 0.6 2.1 -0.4
v 0.8 2 -0.4
v 0.8 2.1 -0.4
v 1.1 2 -0.4
v 1.1 2.1 -0.4
v 1.4 2 -0.4
v 1.4 2.1 -0.4
v 1.4 2.2 -0.4
v 1.5 2 -0.4
v 1.5 2.1 -0.4
v 1.5 2.2 -0.4
v 1.6 2 -0.4
v 1.6 2.2 -0.4
v 0 2 0
v 0.1 2 0
v 0.2 2 0
v 0.5 2 0
v 1 2 0
v 1.1 2 0
v 1.2 2 0
v 1.4 2 0
v 1.5 2 0
v 1.6 2 0
v 0 2 -0.1
v 0.1 2 -0.1
v 0.2 2 -0.1
v 0.5 2 -0.1
v 1 2 -0.1
v 1.1 2 -0.1
v 1.2 2 -0.1
v 1.4 2 -0.1
v 1.5 2 -0.1
v 1.6 2 -0.1
v 0 2 -0.3
v 0.1 2 -0.3
v 0.6 2 -0.3
v 0.8 2 -0.3
v 1.1 2 -0.3
v 1.4 2 -0.3
v 1.5 2 -0.3
v 1.6 2 -0.3
v 0 2 -0.4
v 0.1 2 -0.4
v 0.6 2 -0.4
v 0.8 2 -0.4
v 1.1 2 -0.4
v 1.4 2 -0.4
v 1.5 2 -0.4
v 1.6 2 -0.4
v 0 2.1 -0.1
v 0.1 2.1 -0.1
v 0.2 2.1 -0.1
v 0.4 2.1 -0.1
v 0.5 2.1 -0.1
v 0.6 2.1 -0.1
v 0.7 2.1 -0.1
v 0.9 2.1 -0.1
v 1 2.1 -0.1
v 1.1 2.1 -0.1
v 1.2 2.1 -0.1
v 1.4 2.1 -0.1
v 1.5 2.1 -0.1
v 1.6 2.1 -0.1
v 0.1 2.1 -0.2
v 0.4 2.1 -0.2
v 0.5 2.1 -0.2
v 0.6 2.1 -0.2
v 0.7 2.1 -0.2
v 0.8 2.1 -0.2
v 0.9 2.1 -0.2
v 1 2.1 -0.2
v 1.1 2.1 -0.2
v 1.4 2.1 -0.2
v 0 2.1 -0.3
v 0.1 2.1 -0.3
v 0.6 2.1 -0.3
v 0.8 2.1 -0.3
v 1 2.1 -0.3
v 1.1 2.1 -0.3
v 1.4 2.1 -0.3
v 1.5 2.1 -0.3
v 1.6 2.1 -0.3
v 0 2.2 0
v 0.1 2.2 0
v 0.6 2.2 0
v 0.9 2.2 0
v 1.5 2.2 0
v 1.6 2.2 0
v 0.1 2.2 -0.1
v 0.4 2.2 -0.1
v 0.5 2.2 -0.1
v 0.6 2.2 -0.1
v 0.7 2.2 -0.1
v 1.1 2.2 -0.1
v 1.4 2.2 -0.1
v 0.1 2.2 -0.2
v 0.4 2.2 -0.2
v 0.5 2.2 -0.2
v 0.6 2.2 -0.2
v 0.7 2.2 -0.2
v 0.8 2.2 -0.2
v 0.9 2.2 -0.2
v 1 2.2 -0.2
v 1.1 2.2 -0.2
v 1.4 2.2 -0.2
v 0.2 2.2 -0.3
v 0.5 2.2 -0.3
v 0.8 2.2 -0.3
v 1 2.2 -0.3
v 1.4 2.2 -0.3
v 1.5 2.2 -0.3
v 0 2.2 -0.4
v 0.1 2.2 -0.4
v 0.2 2.2 -0.4
v 0.5 2.2 -0.4
v 1.4 2.2 -0.4
v 1.5 2.2 -0.4
v 1.6 2.2 -0.4

# faces
f 5/1/1 2/1/1 1/1/1
f 6/1/1 4/1/1 3/1/1
f 7/1/1 5/1/1 1/1/1
f 7/1/1 6/1/1 5/1/1
f 8/1/1 4/1/1 6/1/1
f 8/1/1 6/1/1 7/1/1
f 9/1/2 10/1/2 13/1/2
f 11/1/2 12/1/2 14/1/2
f 9/1/2 13/1/2 15/1/2
f 13/1/2 14/1/2 15/1/2
f 14/1/2 12/1/2 16/1/2
f 15/1/2 14/1/2 16/1/2
f 19/1/3 18/1/3 17/1/3
f 20/1/3 18/1/3 19/1/3
f 21/2/3 20/2/3 19/2/3
f 22/2/3 20/2/3 21/2/3
f 23/3/3 22/3/3 21/3/3
f 24/2/3 20/2/3 22/2/3
f 24/3/3 22/3/3 23/3/3
f 25/2/3 24/2/3 23/2/3
f 25/2/3 20/2/3 24/2/3
f 26/2/3 20/2/3 25/2/3
f 27/2/3 25/2/3 23/2/3
f 27/3/3 26/3/3 25/3/3
f 28/3/3 26/3/3 27/3/3
f 29/2/3 27/2/3 23/2/3
f 29/2/3 28/2/3 27/2/3
f 30/2/3 28/2/3 29/2/3
f 31/3/3 30/3/3 29/3/3
f 32/2/3 28/2/3 30/2/3
f 32/3/3 30/3/3 31/3/3
f 33/2/3 32/2/3 31/2/3
f 34/2/3 28/2/3 32/2/3
f 34/2/3 32/2/3 33/2/3
f 35/3/3 34/3/3 33/3/3
f 36/2/3 28/2/3 34/2/3
f 36/3/3 34/3/3 35/3/3
f 37/2/3 36/2/3 35/2/3
f 38/2/3 28/2/3 36/2/3
f 38/2/3 36/2/3 37/2/3
f 39/1/3 38/1/3 37/1/3
f 40/1/3 38/1/3 39/1/3
f 43/1/3 42/1/3 41/1/3
f 44/1/3 42/1/3 43/1/3
f 45/2/3 44/2/3 43/2/3
f 46/2/3 44/2/3 45/2/3
f 47/3/3 46/3/3 45/3/3
f 48/3/3 46/3/3 47/3/3
f 49/2/3 48/2/3 47/2/3
f 50/2/3 49/2/3 47/2/3
f 51/2/3 49/2/3 50/2/3
f 52/3/3 51/3/3 50/3/3
f 53/3/3 51/3/3 52/3/3
f 54/2/3 53/2/3 52/2/3
f 55/2/3 53/2/3 54/2/3
f 56/1/3 55/1/3 54/1/3
f 57/1/3 55/1/3 56/1/3
f 58/1/4 59/1/4 60/1/4
f 60/1/4 59/1/4 61/1/4
f 60/2/4 61/2/4 62/2/4
f 62/2/4 61/2/4 63/2/4
f 62/3/4 63/3/4 64/3/4
f 62/3/4 64/3/4 65/3/4
f 65/3/4 64/3/4 66/3/4
f 65/2/4 66/2/4 67/2/4
f 65/2/4 67/2/4 68/2/4
f 65/2/4 68/2/4 69/2/4
f 65/2/4 69/2/4 70/2/4
f 70/2/4 69/2/4 71/2/4
f 70/3/4 71/3/4 72/3/4
f 72/3/4 71/3/4 73/3/4
f 72/2/4 73/2/4 74/2/4
f 74/2/4 73/2/4 75/2/4
f 74/3/4 75/3/4 76/3/4
f 76/3/4 75/3/4 77/3/4
f 76/2/4 77/2/4 78/2/4
f 78/2/4 77/2/4 79/2/4
f 78/1/4 79/1/4 80/1/4
f 80/1/4 79/1/4 81/1/4
f 82/1/4 83/1/4 84/1/4
f 84/1/4 83/1/4 85/1/4
f 84/2/4 85/2/4 86/2/4
f 86/2/4 85/2/4 87/2/4
f 84/2/4 86/2/4 88/2/4
f 86/3/4 87/3/4 88/3/4
f 88/3/4 87/3/4 89/3/4
f 84/2/4 88/2/4 90/2/4
f 88/2/4 89/2/4 90/2/4
f 90/2/4 89/2/4 91/2/4
f 90/3/4 91/3/4 92/3/4
f 91/2/4 89/2/4 93/2/4
f 92/3/4 91/3/4 93/3/4
f 92/2/4 93/2/4 94/2/4
f 93/2/4 89/2/4 95/2/4
f 94/2/4 93/2/4 95/2/4
f 94/3/4 95/3/4 96/3/4
f 95/2/4 89/2/4 97/2/4
f 96/3/4 95/3/4 97/3/4
f 97/2/4 89/2/4 98/2/4
f 96/2/4 97/2/4 99/2/4
f 97/3/4 98/3/4 100/3/4
f 99/2/4 97/2/4 100/2/4
f 100/3/4 98/3/4 101/3/4
f 99/1/4 100/1/4 102/1/4
f 100/1/4 101/1/4 102/1/4
f 102/1/4 101/1/4 103/1/4
f 114/1/5 105/1/5 104/1/5
f 115/2/5 106/2/5 105/2/5
f 115/1/5 105/1/5 114/1/5
f 116/3/5 107/3/5 106/3/5
f 116/2/5 106/2/5 115/2/5
f 117/2/5 108/2/5 107/2/5
f 117/3/5 107/3/5 116/3/5
f 118/3/5 109/3/5 108/3/5
f 118/2/5 108/2/5 117/2/5
f 119/2/5 110/2/5 109/2/5
f 119/3/5 109/3/5 118/3/5
f 120/3/5 111/3/5 110/3/5
f 120/2/5 110/2/5 119/2/5
f 121/2/5 112/2/5 111/2/5
f 121/3/5 111/3/5 120/3/5
f 122/1/5 113/1/5 112/1/5
f 122/2/5 112/2/5 121/2/5
f 123/1/5 113/1/5 122/1/5
f 132/1/5 125/1/5 124/1/5
f 133/2/5 126/2/5 125/2/5
f 133/1/5 125/1/5 132/1/5
f 134/3/5 127/3/5 126/3/5
f 134/2/5 126/2/5 133/2/5
f 135/2/5 128/2/5 127/2/5
f 135/3/5 127/3/5 134/3/5
f 136/3/5 129/3/5 128/3/5
f 136/2/5 128/2/5 135/2/5
f 137/2/5 130/2/5 129/2/5
f 137/3/5 129/3/5 136/3/5
f 138/1/5 131/1/5 130/1/5
f 138/2/5 130/2/5 137/2/5
f 139/1/5 131/1/5 138/1/5
f 154/1/5 141/1/5 140/1/5
f 154/3/5 142/3/5 141/3/5
f 154/3/5 143/3/5 142/3/5
f 155/2/5 144/2/5 143/2/5
f 155/3/5 143/3/5 154/3/5
f 156/3/5 145/3/5 144/3/5
f 156/2/5 144/2/5 155/2/5
f 157/2/5 146/2/5 145/2/5
f 157/3/5 145/3/5 156/3/5
f 158/3/5 147/3/5 146/3/5
f 158/2/5 146/2/5 157/2/5
f 159/3/5 147/3/5 158/3/5
f 160/2/5 148/2/5 147/2/5
f 160/3/5 147/3/5 159/3/5
f 160/2/5 149/2/5 148/2/5
f 161/2/5 149/2/5 160/2/5
f 162/3/5 151/3/5 150/3/5
f 162/2/5 149/2/5 161/2/5
f 162/3/5 150/3/5 149/3/5
f 163/2/5 152/2/5 151/2/5
f 163/3/5 151/3/5 162/3/5
f 164/1/5 154/1/5 140/1/5
f 165/2/5 155/2/5 154/2/5
f 165/1/5 154/1/5 164/1/5
f 165/2/5 156/2/5 155/2/5
f 165/2/5 157/2/5 156/2/5
f 165/2/5 159/2/5 158/2/5
f 165/2/5 158/2/5 157/2/5
f 166/2/5 159/2/5 165/2/5
f 167/3/5 161/3/5 160/3/5
f 167/2/5 159/2/5 166/2/5
f 167/3/5 160/3/5 159/3/5
f 168/2/5 162/2/5 161/2/5
f 168/3/5 161/3/5 167/3/5
f 168/2/5 163/2/5 162/2/5
f 169/2/5 163/2/5 168/2/5
f 170/2/5 152/2/5 163/2/5
f 170/2/5 163/2/5 169/2/5
f 171/1/5 153/1/5 152/1/5
f 171/2/5 152/2/5 170/2/5
f 172/1/5 153/1/5 171/1/5
f 173/1/6 174/1/6 179/1/6
f 174/2/6 175/2/6 179/2/6
f 179/2/6 175/2/6 180/2/6
f 180/2/6 175/2/6 181/2/6
f 175/3/6 176/3/6 182/3/6
f 181/2/6 175/2/6 182/2/6
f 182/3/6 176/3/6 183/3/6
f 176/2/6 177/2/6 184/2/6
f 184/2/6 177/2/6 185/2/6
f 173/1/6 179/1/6 186/1/6
f 179/3/6 180/3/6 186/3/6
f 180/2/6 181/2/6 187/2/6
f 186/3/6 180/3/6 187/3/6
f 181/3/6 182/3/6 188/3/6
f 187/2/6 181/2/6 188/2/6
f 182/2/6 183/2/6 189/2/6
f 188/3/6 182/3/6 189/3/6
f 183/3/6 176/3/6 190/3/6
f 189/2/6 183/2/6 190/2/6
f 190/3/6 176/3/6 191/3/6
f 176/2/6 184/2/6 192/2/6
f 191/3/6 176/3/6 192/3/6
f 192/2/6 184/2/6 193/2/6
f 184/3/6 185/3/6 194/3/6
f 193/2/6 184/2/6 194/2/6
f 185/2/6 177/2/6 195/2/6
f 194/3/6 185/3/6 195/3/6
f 188/2/6 189/2/6 196/2/6
f 186/2/6 187/2/6 196/2/6
f 187/2/6 188/2/6 196/2/6
f 190/2/6 191/2/6 196/2/6
f 189/2/6 190/2/6 196/2/6
f 196/2/6 191/2/6 197/2/6
f 192/3/6 193/3/6 198/3/6
f 197/2/6 191/2/6 198/2/6
f 191/3/6 192/3/6 198/3/6
f 193/2/6 194/2/6 199/2/6
f 198/3/6 193/3/6 199/3/6
f 194/2/6 195/2/6 199/2/6
f 195/2/6 177/2/6 200/2/6
f 199/2/6 195/2/6 200/2/6
f 177/1/6 178/1/6 201/1/6
f 200/2/6 177/2/6 201/2/6
f 173/1/6 186/1/6 202/1/6
f 186/2/6 196/2/6 203/2/6
f 202/1/6 186/1/6 203/1/6
f 196/3/6 197/3/6 204/3/6
f 203/2/6 196/2/6 204/2/6
f 199/2/6 200/2/6 205/2/6
f 204/3/6 197/3/6 205/3/6
f 198/2/6 199/2/6 205/2/6
f 197/2/6 198/2/6 205/2/6
f 200/3/6 201/3/6 206/3/6
f 205/2/6 200/2/6 206/2/6
f 201/1/6 178/1/6 207/1/6
f 206/3/6 201/3/6 207/3/6
f 207/1/6 178/1/6 208/1/6
