# MagicaVoxel @ Ephtracy

# group
o 

# material
mtllib Log3.mtl
usemtl palette

# normals
vn -1 0 0
vn 1 0 0
vn 0 0 1
vn 0 0 -1
vn 0 -1 0
vn 0 1 0

# texcoords
vt 0.720703 0.5
vt 0.724609 0.5
vt 0.728516 0.5

# verts
v 0 2 0
v 0 2 -0.1
v 0 2 -0.3
v 0 2 -0.4
v 0 2.1 -0.1
v 0 2.1 -0.3
v 0 2.2 0
v 0 2.2 -0.4
v 2.4 2 0
v 2.4 2 -0.1
v 2.4 2 -0.3
v 2.4 2 -0.4
v 2.4 2.1 -0.1
v 2.4 2.1 -0.3
v 2.4 2.2 0
v 2.4 2.2 -0.4
v 0 2 0
v 0 2.2 0
v 0.1 2 0
v 0.1 2.2 0
v 0.2 2.1 0
v 0.2 2.2 0
v 0.4 2 0
v 0.4 2.1 0
v 0.4 2.2 0
v 0.7 2 0
v 0.7 2.1 0
v 0.9 2 0
v 0.9 2.1 0
v 1.2 2 0
v 1.2 2.1 0
v 1.3 2.1 0
v 1.3 2.2 0
v 1.5 2.1 0
v 1.5 2.2 0
v 1.8 2 0
v 1.8 2.1 0
v 2.1 2 0
v 2.1 2.1 0
v 2.3 2 0
v 2.3 2.2 0
v 2.4 2 0
v 2.4 2.2 0
v 0 2 -0.3
v 0 2.1 -0.3
v 0.1 2 -0.3
v 0.1 2.1 -0.3
v 0.4 2.1 -0.3
v 0.8 2 -0.3
v 0.8 2.1 -0.3
v 1 2.1 -0.3
v 1.2 2 -0.3
v 1.2 2.1 -0.3
v 1.3 2.1 -0.3
v 1.7 2 -0.3
v 1.7 2.1 -0.3
v 1.9 2 -0.3
v 1.9 2.1 -0.3
v 2.3 2 -0.3
v 2.3 2.1 -0.3
v 2.4 2 -0.3
v 2.4 2.1 -0.3
v 0 2 -0.1
v 0 2.1 -0.1
v 0.1 2 -0.1
v 0.1 2.1 -0.1
v 0.4 2 -0.1
v 0.4 2.1 -0.1
v 0.5 2.1 -0.1
v 0.7 2 -0.1
v 0.7 2.1 -0.1
v 0.9 2 -0.1
v 0.9 2.1 -0.1
v 1 2.1 -0.1
v 1.2 2 -0.1
v 1.2 2.1 -0.1
v 1.5 2.1 -0.1
v 1.8 2 -0.1
v 1.8 2.1 -0.1
v 1.9 2.1 -0.1
v 2 2.1 -0.1
v 2.1 2 -0.1
v 2.1 2.1 -0.1
v 2.3 2 -0.1
v 2.3 2.1 -0.1
v 2.4 2 -0.1
v 2.4 2.1 -0.1
v 0 2 -0.4
v 0 2.2 -0.4
v 0.1 2 -0.4
v 0.1 2.2 -0.4
v 0.3 2.1 -0.4
v 0.3 2.2 -0.4
v 0.7 2.1 -0.4
v 0.7 2.2 -0.4
v 0.8 2 -0.4
v 0.8 2.1 -0.4
v 1.2 2 -0.4
v 1.2 2.1 -0.4
v 1.4 2.1 -0.4
v 1.4 2.2 -0.4
v 1.6 2.1 -0.4
v 1.6 2.2 -0.4
v 1.7 2 -0.4
v 1.7 2.1 -0.4
v 1.9 2 -0.4
v 1.9 2.1 -0.4
v 1.9 2.2 -0.4
v 2.2 2.1 -0.4
v 2.2 2.2 -0.4
v 2.3 2 -0.4
v 2.3 2.2 -0.4
v 2.4 2 -0.4
v 2.4 2.2 -0.4
v 0 2 0
v 0.1 2 0
v 0.4 2 0
v 0.7 2 0
v 0.9 2 0
v 1.2 2 0
v 1.8 2 0
v 2.1 2 0
v 2.3 2 0
v 2.4 2 0
v 0 2 -0.1
v 0.1 2 -0.1
v 0.4 2 -0.1
v 0.7 2 -0.1
v 0.9 2 -0.1
v 1.2 2 -0.1
v 1.8 2 -0.1
v 2.1 2 -0.1
v 2.3 2 -0.1
v 2.4 2 -0.1
v 0 2 -0.3
v 0.1 2 -0.3
v 0.8 2 -0.3
v 1.2 2 -0.3
v 1.7 2 -0.3
v 1.9 2 -0.3
v 2.3 2 -0.3
v 2.4 2 -0.3
v 0 2 -0.4
v 0.1 2 -0.4
v 0.8 2 -0.4
v 1.2 2 -0.4
v 1.7 2 -0.4
v 1.9 2 -0.4
v 2.3 2 -0.4
v 2.4 2 -0.4
v 0 2.1 -0.1
v 0.1 2.1 -0.1
v 0.4 2.1 -0.1
v 0.5 2.1 -0.1
v 0.7 2.1 -0.1
v 0.9 2.1 -0.1
v 1 2.1 -0.1
v 1.2 2.1 -0.1
v 1.5 2.1 -0.1
v 1.8 2.1 -0.1
v 1.9 2.1 -0.1
v 2 2.1 -0.1
v 2.1 2.1 -0.1
v 2.3 2.1 -0.1
v 2.4 2.1 -0.1
v 0.1 2.1 -0.2
v 0.4 2.1 -0.2
v 0.5 2.1 -0.2
v 0.7 2.1 -0.2
v 0.9 2.1 -0.2
v 1 2.1 -0.2
v 1.3 2.1 -0.2
v 1.5 2.1 -0.2
v 1.9 2.1 -0.2
v 2 2.1 -0.2
v 2.3 2.1 -0.2
v 0 2.1 -0.3
v 0.1 2.1 -0.3
v 0.4 2.1 -0.3
v 0.8 2.1 -0.3
v 1 2.1 -0.3
v 1.2 2.1 -0.3
v 1.3 2.1 -0.3
v 1.7 2.1 -0.3
v 1.9 2.1 -0.3
v 2.3 2.1 -0.3
v 2.4 2.1 -0.3
v 0 2.2 0
v 0.1 2.2 0
v 0.2 2.2 0
v 0.4 2.2 0
v 1.3 2.2 0
v 1.5 2.2 0
v 2.3 2.2 0
v 2.4 2.2 0
v 0.2 2.2 -0.1
v 0.4 2.2 -0.1
v 0.5 2.2 -0.1
v 0.7 2.2 -0.1
v 0.9 2.2 -0.1
v 1 2.2 -0.1
v 1.3 2.2 -0.1
v 1.5 2.2 -0.1
v 1.9 2.2 -0.1
v 2 2.2 -0.1
v 2.3 2.2 -0.1
v 0.1 2.2 -0.2
v 0.4 2.2 -0.2
v 0.5 2.2 -0.2
v 0.7 2.2 -0.2
v 0.9 2.2 -0.2
v 1 2.2 -0.2
v 1.3 2.2 -0.2
v 1.5 2.2 -0.2
v 1.9 2.2 -0.2
v 2 2.2 -0.2
v 2.3 2.2 -0.2
v 0.1 2.2 -0.3
v 0.3 2.2 -0.3
v 0.4 2.2 -0.3
v 0.7 2.2 -0.3
v 1 2.2 -0.3
v 1.3 2.2 -0.3
v 1.4 2.2 -0.3
v 1.6 2.2 -0.3
v 1.9 2.2 -0.3
v 2.2 2.2 -0.3
v 0 2.2 -0.4
v 0.1 2.2 -0.4
v 0.3 2.2 -0.4
v 0.7 2.2 -0.4
v 1.4 2.2 -0.4
v 1.6 2.2 -0.4
v 1.9 2.2 -0.4
v 2.2 2.2 -0.4
v 2.3 2.2 -0.4
v 2.4 2.2 -0.4

# faces
f 5/1/1 2/1/1 1/1/1
f 6/1/1 4/1/1 3/1/1
f 7/1/1 5/1/1 1/1/1
f 7/1/1 6/1/1 5/1/1
f 8/1/1 4/1/1 6/1/1
f 8/1/1 6/1/1 7/1/1
f 9/1/2 10/1/2 13/1/2
f 11/1/2 12/1/2 14/1/2
f 9/1/2 13/1/2 15/1/2
f 13/1/2 14/1/2 15/1/2
f 14/1/2 12/1/2 16/1/2
f 15/1/2 14/1/2 16/1/2
f 19/1/3 18/1/3 17/1/3
f 20/1/3 18/1/3 19/1/3
f 21/2/3 20/2/3 19/2/3
f 22/2/3 20/2/3 21/2/3
f 23/2/3 21/2/3 19/2/3
f 24/3/3 22/3/3 21/3/3
f 24/2/3 21/2/3 23/2/3
f 25/3/3 22/3/3 24/3/3
f 26/3/3 24/3/3 23/3/3
f 27/2/3 25/2/3 24/2/3
f 27/3/3 24/3/3 26/3/3
f 28/2/3 27/2/3 26/2/3
f 29/2/3 25/2/3 27/2/3
f 29/2/3 27/2/3 28/2/3
f 30/3/3 29/3/3 28/3/3
f 31/2/3 25/2/3 29/2/3
f 31/3/3 29/3/3 30/3/3
f 32/2/3 31/2/3 30/2/3
f 32/2/3 25/2/3 31/2/3
f 33/2/3 25/2/3 32/2/3
f 34/2/3 32/2/3 30/2/3
f 34/3/3 33/3/3 32/3/3
f 35/3/3 33/3/3 34/3/3
f 36/2/3 34/2/3 30/2/3
f 36/2/3 35/2/3 34/2/3
f 37/2/3 35/2/3 36/2/3
f 38/3/3 37/3/3 36/3/3
f 39/2/3 35/2/3 37/2/3
f 39/3/3 37/3/3 38/3/3
f 40/2/3 39/2/3 38/2/3
f 41/2/3 35/2/3 39/2/3
f 41/2/3 39/2/3 40/2/3
f 42/1/3 41/1/3 40/1/3
f 43/1/3 41/1/3 42/1/3
f 46/1/3 45/1/3 44/1/3
f 47/1/3 45/1/3 46/1/3
f 48/2/3 47/2/3 46/2/3
f 49/2/3 48/2/3 46/2/3
f 50/2/3 48/2/3 49/2/3
f 51/3/3 50/3/3 49/3/3
f 52/3/3 51/3/3 49/3/3
f 53/3/3 51/3/3 52/3/3
f 54/2/3 53/2/3 52/2/3
f 55/2/3 54/2/3 52/2/3
f 56/2/3 54/2/3 55/2/3
f 57/3/3 56/3/3 55/3/3
f 58/3/3 56/3/3 57/3/3
f 59/2/3 58/2/3 57/2/3
f 60/2/3 58/2/3 59/2/3
f 61/1/3 60/1/3 59/1/3
f 62/1/3 60/1/3 61/1/3
f 63/1/4 64/1/4 65/1/4
f 65/1/4 64/1/4 66/1/4
f 65/2/4 66/2/4 67/2/4
f 67/2/4 66/2/4 68/2/4
f 67/3/4 68/3/4 69/3/4
f 67/3/4 69/3/4 70/3/4
f 70/3/4 69/3/4 71/3/4
f 70/2/4 71/2/4 72/2/4
f 72/2/4 71/2/4 73/2/4
f 72/3/4 73/3/4 74/3/4
f 72/3/4 74/3/4 75/3/4
f 75/3/4 74/3/4 76/3/4
f 75/2/4 76/2/4 77/2/4
f 75/2/4 77/2/4 78/2/4
f 78/2/4 77/2/4 79/2/4
f 78/3/4 79/3/4 80/3/4
f 78/3/4 80/3/4 81/3/4
f 78/3/4 81/3/4 82/3/4
f 82/3/4 81/3/4 83/3/4
f 82/2/4 83/2/4 84/2/4
f 84/2/4 83/2/4 85/2/4
f 84/1/4 85/1/4 86/1/4
f 86/1/4 85/1/4 87/1/4
f 88/1/4 89/1/4 90/1/4
f 90/1/4 89/1/4 91/1/4
f 90/2/4 91/2/4 92/2/4
f 92/2/4 91/2/4 93/2/4
f 90/2/4 92/2/4 94/2/4
f 92/3/4 93/3/4 94/3/4
f 94/3/4 93/3/4 95/3/4
f 90/2/4 94/2/4 96/2/4
f 94/2/4 95/2/4 96/2/4
f 96/2/4 95/2/4 97/2/4
f 96/3/4 97/3/4 98/3/4
f 97/2/4 95/2/4 99/2/4
f 98/3/4 97/3/4 99/3/4
f 98/2/4 99/2/4 100/2/4
f 99/2/4 95/2/4 100/2/4
f 100/2/4 95/2/4 101/2/4
f 98/2/4 100/2/4 102/2/4
f 100/3/4 101/3/4 102/3/4
f 102/3/4 101/3/4 103/3/4
f 98/2/4 102/2/4 104/2/4
f 102/2/4 103/2/4 104/2/4
f 104/2/4 103/2/4 105/2/4
f 104/3/4 105/3/4 106/3/4
f 105/2/4 103/2/4 107/2/4
f 106/3/4 105/3/4 107/3/4
f 107/2/4 103/2/4 108/2/4
f 106/2/4 107/2/4 109/2/4
f 107/3/4 108/3/4 109/3/4
f 109/3/4 108/3/4 110/3/4
f 106/2/4 109/2/4 111/2/4
f 109/2/4 110/2/4 111/2/4
f 111/2/4 110/2/4 112/2/4
f 111/1/4 112/1/4 113/1/4
f 113/1/4 112/1/4 114/1/4
f 125/1/5 116/1/5 115/1/5
f 126/2/5 117/2/5 116/2/5
f 126/1/5 116/1/5 125/1/5
f 127/3/5 118/3/5 117/3/5
f 127/2/5 117/2/5 126/2/5
f 128/2/5 119/2/5 118/2/5
f 128/3/5 118/3/5 127/3/5
f 129/3/5 120/3/5 119/3/5
f 129/2/5 119/2/5 128/2/5
f 130/2/5 121/2/5 120/2/5
f 130/3/5 120/3/5 129/3/5
f 131/3/5 122/3/5 121/3/5
f 131/2/5 121/2/5 130/2/5
f 132/2/5 123/2/5 122/2/5
f 132/3/5 122/3/5 131/3/5
f 133/1/5 124/1/5 123/1/5
f 133/2/5 123/2/5 132/2/5
f 134/1/5 124/1/5 133/1/5
f 143/1/5 136/1/5 135/1/5
f 144/2/5 137/2/5 136/2/5
f 144/1/5 136/1/5 143/1/5
f 145/3/5 138/3/5 137/3/5
f 145/2/5 137/2/5 144/2/5
f 146/2/5 139/2/5 138/2/5
f 146/3/5 138/3/5 145/3/5
f 147/3/5 140/3/5 139/3/5
f 147/2/5 139/2/5 146/2/5
f 148/2/5 141/2/5 140/2/5
f 148/3/5 140/3/5 147/3/5
f 149/1/5 142/1/5 141/1/5
f 149/2/5 141/2/5 148/2/5
f 150/1/5 142/1/5 149/1/5
f 166/1/5 152/1/5 151/1/5
f 166/2/5 153/2/5 152/2/5
f 166/2/5 154/2/5 153/2/5
f 167/2/5 154/2/5 166/2/5
f 168/3/5 155/3/5 154/3/5
f 168/2/5 154/2/5 167/2/5
f 169/2/5 156/2/5 155/2/5
f 169/3/5 155/3/5 168/3/5
f 170/3/5 157/3/5 156/3/5
f 170/2/5 156/2/5 169/2/5
f 171/2/5 158/2/5 157/2/5
f 171/3/5 157/3/5 170/3/5
f 171/2/5 159/2/5 158/2/5
f 172/2/5 159/2/5 171/2/5
f 173/3/5 160/3/5 159/3/5
f 173/2/5 159/2/5 172/2/5
f 173/3/5 161/3/5 160/3/5
f 174/2/5 162/2/5 161/2/5
f 174/3/5 161/3/5 173/3/5
f 175/3/5 164/3/5 163/3/5
f 175/2/5 162/2/5 174/2/5
f 175/3/5 163/3/5 162/3/5
f 176/1/5 165/1/5 164/1/5
f 176/3/5 164/3/5 175/3/5
f 177/1/5 166/1/5 151/1/5
f 178/3/5 167/3/5 166/3/5
f 178/1/5 166/1/5 177/1/5
f 179/2/5 168/2/5 167/2/5
f 179/3/5 167/3/5 178/3/5
f 179/2/5 169/2/5 168/2/5
f 179/2/5 170/2/5 169/2/5
f 179/2/5 171/2/5 170/2/5
f 180/2/5 171/2/5 179/2/5
f 181/3/5 172/3/5 171/3/5
f 181/2/5 171/2/5 180/2/5
f 182/3/5 172/3/5 181/3/5
f 183/2/5 175/2/5 174/2/5
f 183/3/5 172/3/5 182/3/5
f 183/2/5 174/2/5 173/2/5
f 183/2/5 173/2/5 172/2/5
f 183/2/5 176/2/5 175/2/5
f 184/2/5 176/2/5 183/2/5
f 185/2/5 176/2/5 184/2/5
f 186/1/5 165/1/5 176/1/5
f 186/2/5 176/2/5 185/2/5
f 187/1/5 165/1/5 186/1/5
f 189/2/6 190/2/6 196/2/6
f 190/3/6 191/3/6 196/3/6
f 191/2/6 192/2/6 197/2/6
f 196/3/6 191/3/6 197/3/6
f 197/2/6 192/2/6 198/2/6
f 198/2/6 192/2/6 199/2/6
f 199/2/6 192/2/6 200/2/6
f 200/2/6 192/2/6 201/2/6
f 192/3/6 193/3/6 202/3/6
f 201/2/6 192/2/6 202/2/6
f 193/2/6 194/2/6 203/2/6
f 202/3/6 193/3/6 203/3/6
f 203/2/6 194/2/6 204/2/6
f 204/2/6 194/2/6 205/2/6
f 194/1/6 195/1/6 206/1/6
f 205/2/6 194/2/6 206/2/6
f 188/1/6 189/1/6 207/1/6
f 189/2/6 196/2/6 207/2/6
f 196/2/6 197/2/6 207/2/6
f 197/2/6 198/2/6 207/2/6
f 207/2/6 198/2/6 208/2/6
f 198/3/6 199/3/6 209/3/6
f 208/2/6 198/2/6 209/2/6
f 199/2/6 200/2/6 210/2/6
f 209/3/6 199/3/6 210/3/6
f 200/3/6 201/3/6 211/3/6
f 210/2/6 200/2/6 211/2/6
f 201/2/6 202/2/6 212/2/6
f 211/3/6 201/3/6 212/3/6
f 202/2/6 203/2/6 212/2/6
f 212/2/6 203/2/6 213/2/6
f 203/3/6 204/3/6 214/3/6
f 213/2/6 203/2/6 214/2/6
f 204/2/6 205/2/6 215/2/6
f 214/3/6 204/3/6 215/3/6
f 205/3/6 206/3/6 216/3/6
f 215/2/6 205/2/6 216/2/6
f 206/1/6 195/1/6 217/1/6
f 216/3/6 206/3/6 217/3/6
f 188/1/6 207/1/6 218/1/6
f 207/3/6 208/3/6 218/3/6
f 218/3/6 208/3/6 219/3/6
f 210/2/6 211/2/6 220/2/6
f 219/3/6 208/3/6 220/3/6
f 209/2/6 210/2/6 220/2/6
f 208/2/6 209/2/6 220/2/6
f 211/2/6 212/2/6 220/2/6
f 220/2/6 212/2/6 221/2/6
f 212/3/6 213/3/6 222/3/6
f 221/2/6 212/2/6 222/2/6
f 215/2/6 216/2/6 223/2/6
f 222/3/6 213/3/6 223/3/6
f 213/2/6 214/2/6 223/2/6
f 214/2/6 215/2/6 223/2/6
f 216/2/6 217/2/6 223/2/6
f 223/2/6 217/2/6 224/2/6
f 224/2/6 217/2/6 225/2/6
f 225/2/6 217/2/6 226/2/6
f 226/2/6 217/2/6 227/2/6
f 188/1/6 218/1/6 228/1/6
f 218/2/6 219/2/6 229/2/6
f 228/1/6 218/1/6 229/1/6
f 219/3/6 220/3/6 230/3/6
f 229/2/6 219/2/6 230/2/6
f 220/3/6 221/3/6 230/3/6
f 221/2/6 222/2/6 231/2/6
f 230/3/6 221/3/6 231/3/6
f 222/2/6 223/2/6 231/2/6
f 223/2/6 224/2/6 231/2/6
f 224/3/6 225/3/6 232/3/6
f 231/2/6 224/2/6 232/2/6
f 225/2/6 226/2/6 233/2/6
f 232/3/6 225/3/6 233/3/6
f 226/3/6 227/3/6 234/3/6
f 233/2/6 226/2/6 234/2/6
f 227/2/6 217/2/6 235/2/6
f 234/3/6 227/3/6 235/3/6
f 217/1/6 195/1/6 236/1/6
f 235/2/6 217/2/6 236/2/6
f 236/1/6 195/1/6 237/1/6
